<svg xmlns="http://www.w3.org/2000/svg" xmlns:xlink="http://www.w3.org/1999/xlink" viewBox="0 0 448.16 304.69"><defs><style>.cls-1,.cls-17,.cls-19{fill:#a5b0cb;}.cls-2{isolation:isolate;}.cls-25,.cls-3,.cls-5{fill:#fac8d4;}.cls-3,.cls-4{opacity:0.57;}.cls-10,.cls-12,.cls-13,.cls-15,.cls-17,.cls-19,.cls-20,.cls-21,.cls-24,.cls-25,.cls-3,.cls-4,.cls-8{mix-blend-mode:multiply;}.cls-6{fill:#fff;}.cls-7,.cls-8{fill:#5f5dc5;}.cls-8{opacity:0.5;}.cls-15,.cls-9{fill:#f8be64;}.cls-11,.cls-13,.cls-24{fill:#d27e50;}.cls-12,.cls-13{opacity:0.41;}.cls-14,.cls-20{fill:#fcf4e1;}.cls-16{fill:#563b32;}.cls-17,.cls-21{opacity:0.52;}.cls-18{clip-path:url(#clip-path);}.cls-22{fill:#ea5d3b;}.cls-23{opacity:0.53;}</style><clipPath id="clip-path"><path class="cls-1" d="M175,160.47c30.51,17.58,46.68,46.64,52.49,84l-57.6,27.81-1.26-1.06a99,99,0,0,1-31.5-47.33l-.09-.31-12.49-41.69Z"/></clipPath></defs><g class="cls-2"><g id="Layer_2" data-name="Layer 2"><g id="OBJECTS"><ellipse class="cls-3" cx="226.85" cy="288.75" rx="221.31" ry="15.94"/><g class="cls-4"><path class="cls-5" d="M436.92,205.45a37.45,37.45,0,0,0-11.27-16.11c-9.11-7.61-22.19-11.89-28.34-21.49-7.67-12-1.46-26.66,1-40.2,3.51-19.51-4-42.71-24.83-50.58-18.14-6.85-40.76-.18-57.91-8.74-20-10-21.87-34.62-36.78-49.9-11.85-12.15-31-17.09-48.7-18.2-23.49-1.46-49.44,3.83-63.62,20.18C153.27,35.61,151.24,58.83,132,68c-13.39,6.37-30,3-45,5.62-30.33,5.23-44.46,31-37.39,55.58,3,10.54,7,21.71,3,32C47,175.85,27.56,182.6,16.79,195c-13,14.92-11.27,37,.58,52.66s32,25.31,52.89,29.91,42.63,4.66,64.14,4.69L310,282.5c22.72,0,45.75,0,67.69-5.09s43-16.08,54.23-33.28C439.48,232.56,441.44,217.94,436.92,205.45Z"/></g><path class="cls-6" d="M431,132.92c-5.9,4.62-10.93,6.63-18.46,6.74-5.37.08-9.81-2.37-14.62-1.91a1.88,1.88,0,0,0-.46,3.64,27.05,27.05,0,0,0,7.88,1.16c3.2.07,11.13-.27,6.68,5.73-4.32,5.83-13.83-.48-21.11-3.15a1.88,1.88,0,0,0-1.45,3.47c6.38,2.84,17.55,4.11,16.16,11.75-1.61,8.86-16.27-3.11-19.49-5.66-2-1.62-11-9.9-10.68-3.14.16,3.81,8.17,7.09,10.95,8.35s9.6,1.78,11.07,4.59c2.47,4.71-3.4,5.31-6.55,4.85-7.12-1.05-12.24-11.86-19.18-13.56a1.88,1.88,0,0,0-2,2.81,22,22,0,0,0,5.61,6.48c3.22,2.51,7,2.66,9.94,4.66,8.1,5.46-5.06,6.68-10.11,1.92-2.27-2.14-11-15.88-15.94-11.12l0,0a3.83,3.83,0,0,0-.28.29l-.08.1,0,0c-3.43,4.77,18,17.07,21,18.81,2.27,1.28,4.75.52,7.19.82a1.91,1.91,0,0,1,1.64,1.65c1.58,12.11-15.27.7-19-2.54-3.15-2.78-7-6.61-11-8s-10.76-1.51-7.65,3.68c1.73,2.88,8.81,7.66,11.72,9.65,3.65,2.51,7.5,3.31,11.47,5.08,3.18,1.41,9.26,5.74,4,8.41-2.63,1.34-8.41-1.46-10.75-2.7-7.11-3.77-12.94-16.75-21.89-16.5a1.88,1.88,0,0,0-1.77,2.4c2,6.66,14.33,12.79,19.18,16.08a24.42,24.42,0,0,0,6,3c2.14.69,5.31-.16,7.26.92,6,3.3,1,7.52-3.41,8.16-9.21,1.36-14.7-5.07-18.47-12.34-1.94-3.77-10.46-17.53-13.94-8.23-3.36,9,8.51,9.18,12.78,13.23,3,2.84,2.91,6.86,5.74,9.85,2.44,2.58,6.21,3.13,7.45,6.93s0,6.63-4.2,6c-3.71-.52-6.25-4.74-8-7.69-2.1-3.56-2.7-8.32-5.67-11.31-2-2-7.78-4.58-9.65-1.07s7.22,14.49,9.31,17c5.36,6.43,9.12,8.22,16.45,10a1.9,1.9,0,0,1,1.41,1.55c.95,5.94-6.24,6.22-10.6,3.85-5-2.76-7.73-7.77-10.14-12.76-1.46-3-4.7-12.46-8.82-11.73-5.81,1-3.63,9.09-1,11.1,4.34,3.27,7.4,2.84,9.58,9,1.37,3.93,3.3,8.94,2.7,13.22-.78,5.6-4.8,7.08-7.65,1.37-2.08-4.19-.67-9-1.57-13.56-1-5.15-6.42-10.87-11.17-5.34-2.34,2.73-2.92,8.67-3.06,13a1.88,1.88,0,0,1-2.33,1.76c-1.08-.27-2.37-.59-3.53-.83l-.83-.17a1.88,1.88,0,0,1-1.32-2.65,86.34,86.34,0,0,1,4.75-8.47c.8-1.35,1.61-2.73,2.36-4.2a.56.56,0,0,1,.05-.08c1.84-3.55,2.26-5,.84-6.51a14.19,14.19,0,0,0-2.78-2.07c-2.58-1.61-16.21-8.25-8.66-11.91,5.11-2.47,9.21,6.18,13.06,7.39.23.08.45.13.66.19,5.78,1.45,5.48-4,3.13-7.76a10.85,10.85,0,0,0-.71-1c-3.42-4.28-8.78-5.87-13.83-7.12-3.4-.82-10.12-1.46-9.72-6.71.58-7.53,10.23-1.47,13,1.05,3.19,2.86,9.81,14.1,11.72,6.92,3.15-11.86-16.59-17.93-16.8-29a1.86,1.86,0,0,1,2.23-1.84c3.76.75,5.39,5.69,7.43,8.61,1.4,2,7.38,11.43,9.36,11.62,3.81.37,4.49-6.43,3.89-9.41-1.47-7.52-9.87-9.69-15.73-12.79-7.27-3.85-8-13.22,1.37-9.5,6.6,2.6,9.78,10.48,14.43,15.3,7.08,7.34,4.8-2.84,2.7-7.45-2-4.33-5.9-8-9.8-10.73-5.92-4.17-16.73-3.32-17.71-12.62-1.45-13.82,22.87,7.26,25.83,10.54,2.79,3.09,3.26,7.29,4.82,10.89,1.68,3.86,5.35,6.93,6.92,1.17,1-3.57-2.13-6.94-4-9.38-4.55-5.84-13.49-10.81-15.62-18.16-3.32-11.5,7.27-10,11.41-2.36,3.19,5.88,5.27,12.2,7.63,18.3.74,1.91,3.19,8.94,5.37,5.3,1-1.66-1.12-7.15-1.55-8.84-1.61-6.29-4.81-11.2-7.27-17.14-1.6-3.87-3.38-21,4.08-14.62,3.73,3.18,4.29,13.32,6.25,17.76.89,2,2.11,8.06,3.43,12.19a1.88,1.88,0,0,0,3.58,0c1.19-3.89,1.83-7.86.41-11.9-2.08-5.9-7.52-6.22-7.26-13.3.2-5.53,2.82-10.16,7.33-4.68,3,3.6,3.81,10,4.91,14.43.71,2.9.05,10.32,1.58,12.69,3.94,6.09,3.2-5.78,3.08-8.23-.2-4-3.42-30.08,7.18-25.69,5.3,2.18.31,14.85-1.49,22.13a1.88,1.88,0,0,0,3.14,1.81c6.3-6.26,5.88-19.19,12.59-23.88s5.58,3.52,3.57,7.69c-1.4,2.94-6.85,7.5-8.43,11.24a1.88,1.88,0,0,0,2.46,2.45c4.6-1.95,10.65-6.48,13.93-8.86,4.55-3.31,9-15.34,15.51-14.16s-.42,7.72-4.82,11.17c-1,.76-1.83,1.36-2.38,1.74-2.09,1.39-7.38,3.64-11.25,6.1a1.87,1.87,0,0,0,1.48,3.4,94,94,0,0,0,14.12-5.07c4.34-2,13.67-12.62,18-12C445.06,116,433.86,130.66,431,132.92Z"/><path class="cls-7" d="M394,189.47h0l-.52.43Z"/><path class="cls-7" d="M356,235.83h0l-.19.36Z"/><path class="cls-8" d="M344.07,251.8c.58-1.27,1.17-2.53,1.76-3.78h0C345.24,249.28,344.65,250.54,344.07,251.8Z"/><path class="cls-8" d="M393.32,183.92l-.76.59.76-.6Z"/><path class="cls-8" d="M368.6,209.33c-.64.84-1.26,1.7-1.88,2.56C367.34,211,368,210.17,368.6,209.33Z"/><path class="cls-8" d="M424.67,167.6c.64-.21,1.3-.4,1.95-.59Z"/><path class="cls-8" d="M412.85,172.12c-1.29.59-2.56,1.21-3.82,1.85,1.25-.64,2.53-1.26,3.82-1.85Z"/><path class="cls-8" d="M375.07,201.28q1.6-1.86,3.27-3.65C377.23,198.82,376.15,200,375.07,201.28Z"/><path class="cls-8" d="M373.79,202.79h0l1.28-1.5Z"/><path class="cls-8" d="M360,221.87q-1.32,2.08-2.59,4.23,1.27-2.15,2.59-4.24Z"/><path class="cls-8" d="M362.44,218.09h0c1.39-2.11,2.82-4.18,4.28-6.19C365.26,213.91,363.83,216,362.44,218.09Z"/><path class="cls-8" d="M347.79,243.94l.66-1.32c-.22.44-.44.88-.65,1.33Z"/><path class="cls-8" d="M354.18,231.73q1.57-2.85,3.23-5.62C356.31,228,355.24,229.83,354.18,231.73Z"/><path class="cls-7" d="M353.18,233.53l-.69,1.28c-.23.42-.46.85-.68,1.28l-.69,1.29c-.22.43-.45.86-.67,1.3s-.45.87-.67,1.3c-.45.87-.89,1.75-1.33,2.64l-.66,1.32a46,46,0,0,1-5.52-13.41,1.26,1.26,0,0,0-2.46.54,73.31,73.31,0,0,0,6,17c-.59,1.25-1.18,2.51-1.76,3.78-.29.63-.57,1.27-.86,1.91s-.57,1.28-.86,1.92a39.37,39.37,0,0,1-4.06-7.24,49.61,49.61,0,0,1,4.93-48C344.09,219.27,352.08,231.87,353.18,233.53Z"/><path class="cls-9" d="M439.31,163a3.47,3.47,0,0,0-2.17-2.68,50,50,0,0,0-23.82-2.94c-2.51,6.27-6.78,16.09-10.44,20l1.27-.76,1.16-.66,1.22-.68c.41-.23.83-.45,1.25-.67L409,174c1.25-.64,2.53-1.26,3.82-1.85a14.7,14.7,0,0,1,1.51-7.15,1.26,1.26,0,0,1,2.35.81,7.08,7.08,0,0,0,.34,4.53q2.32-.93,4.72-1.76l1-.33c.64-.21,1.28-.42,1.94-.62s1.3-.4,1.95-.59l1.37-.39,1.33-.35h0c1-.37,1.93-.71,2.84-1-.91.31-1.85.66-2.83,1,1.1-.29,2.21-.56,3.34-.81-.21.06-.6.2-1.16.42l-.23.09-1.19.49-.24.1-.78.35-.28.12c-1.13.51-2.47,1.14-4,1.91l-.78.39c-.83.42-1.7.88-2.62,1.37l-.45.25q-2,1.06-4.16,2.35l-.8.47-.53.32c-.51.31-1,.62-1.55.95-.76.46-1.53,1-2.31,1.45l-.58.36-.65.43a25.48,25.48,0,0,0,3.38,1.07,1.59,1.59,0,0,1-.52,3.13,23.35,23.35,0,0,1-6.61-1.67h0q-2.07,1.44-4.22,3l-1.08.81-1.32,1-.87.67-1.1.87h0a29.68,29.68,0,0,0,10,3.56,1.59,1.59,0,0,1-.28,3.16,28,28,0,0,1-13.28-3.24l-.75.08-1.2,1-.66.57q-2,1.75-4,3.66a29.45,29.45,0,0,0,10.09,3.65,1.59,1.59,0,0,1-.27,3.16,27.78,27.78,0,0,1-12.59-2.9l-1.54.27c-.84.84-1.68,1.7-2.51,2.57l-.81.86-.19.2-.55.59-.25.27-.56.61c-.36.39-.71.78-1.06,1.18-.23.25-.46.5-.68.76l-.3.34c-.3.33-.59.67-.88,1a.6.6,0,0,0-.08.08c-.34.39-.68.79-1,1.19l-.75.88-.62.75c-.27.34-.55.67-.82,1s-.57.71-.86,1.07c-.61.77-1.23,1.55-1.83,2.34l-.44.57-.09.12-.71.94-.23.3-.88,1.2-.79,1.08c-.25.35-.5.7-.74,1.06l.42-.28a51.28,51.28,0,0,0,6.49,1.89,1.6,1.6,0,0,1-.61,3.13,44.08,44.08,0,0,1-8.12-2.13h0c-.24.37-.49.73-.74,1.1s-.34.51-.5.77l-.56.85-.59.92c-.21.32-.42.65-.62,1-.32.5-.63,1-.94,1.51s-.45.74-.67,1.11c-.55.9-1.09,1.82-1.62,2.75,1.14.37,2.82.86,4.86,1.33a1.59,1.59,0,0,1-.6,3.13,43.12,43.12,0,0,1-6-1.41h0c-.26.48-.53,1-.79,1.45l-.48.91q-1.18,2.25-2.31,4.57l-.61,1.26q-.66,1.41-1.32,2.85c1.15,0,2.67-.13,4.41-.32a1.59,1.59,0,0,1,.48,3.15,45,45,0,0,1-6.41.65c-.45,1.06-.9,2.13-1.33,3.22l-.5,1.26c-.18.47-.36.93-.53,1.4l0,.07c-.18.46-.35.93-.52,1.39.84,0,1.92-.06,3.22-.16a76.1,76.1,0,0,0,52.18-26.6c3-3.57,6.63-7.95,10.37-12.87l-35.81-5.49c8.82-4.21,28.71-2.12,40.2-.45,10.51-14.63,21-32.58,23.07-48.09A3.35,3.35,0,0,0,439.31,163Zm-5.62,1.68c1.24-.41,2.4-.78,3.48-1.09C436.09,163.94,434.93,164.31,433.69,164.72Z"/><path class="cls-9" d="M354.18,231.73q1.57-2.85,3.23-5.62h0q1.27-2.15,2.59-4.24a41.46,41.46,0,0,1-2.18-14.71,1.26,1.26,0,0,1,2.51-.05,59.92,59.92,0,0,0,2.1,11c1.39-2.11,2.82-4.18,4.28-6.19.62-.87,1.24-1.72,1.88-2.56l.36-.48c.15-.2.29-.39.44-.57s.18-.25.28-.37.36-.47.54-.7a34,34,0,0,1-.87-16.12,1.26,1.26,0,0,1,2.5.23,31.19,31.19,0,0,0,1.94,11.46l1.28-1.5q1.6-1.86,3.27-3.65c.44-.48.89-.95,1.33-1.42l.68-.7.68-.7.68-.68,1.17-1.16.3-.29.53-.51c.06,0,.11-.11.17-.17l.6-.56a20.39,20.39,0,0,1-.54-8.89,1.26,1.26,0,0,1,2.5.17,21,21,0,0,0,.88,6.14c.48-.43,1-.86,1.47-1.28l.74-.63.75-.62.75-.61.76-.61.77-.6.76-.6a20.4,20.4,0,0,1,1.32-7.9,1.26,1.26,0,0,1,2.42.7,22.53,22.53,0,0,0-.47,4.8l0,0,.63-.44.72-.5.61-.41,1-.66.8-.53.22-.14.39-.24,1-.61,4.34-19.43c-20.16,4.24-40.57,17.36-54.8,32,.14,13.1.58,37.25,1.74,42.85C353.55,232.85,353.86,232.29,354.18,231.73Z"/><path class="cls-9" d="M342.18,231a48.49,48.49,0,0,0,5.61,12.95l.66-1.32c.44-.89.88-1.77,1.33-2.64.22-.43.44-.87.67-1.3s.45-.87.67-1.3l.69-1.29c.22-.43.45-.86.68-1.28l.69-1.28c-1.1-1.66-9.09-14.26-10-33.16a49.61,49.61,0,0,0-4.93,48,39.37,39.37,0,0,0,4.06,7.24c.29-.64.57-1.29.86-1.92s.57-1.28.86-1.91c.58-1.27,1.17-2.53,1.76-3.78-1.53-3.11-4.83-9.79-6.26-16.39A1.34,1.34,0,0,1,342.18,231Z"/><path class="cls-6" d="M344.07,251.8c.58-1.26,1.17-2.52,1.76-3.77h0c-2-4.06-6.78-14.71-6.61-23a1,1,0,0,1,1.88-.12c.83,5.13,2.68,12.83,6.69,19.07h0c.21-.45.43-.89.65-1.33.44-.89.88-1.77,1.33-2.64.22-.43.44-.87.67-1.3s.45-.87.67-1.3l.69-1.29c.22-.43.45-.86.68-1.28l.69-1.28.06-.11c.31-.57.62-1.13.94-1.69,1.06-1.9,2.13-3.77,3.23-5.62h0q1.27-2.15,2.59-4.23h0a40.61,40.61,0,0,1-1.74-19.25,1,1,0,0,1,1.88.13,56.61,56.61,0,0,0,2.29,15.34h0c1.39-2.12,2.82-4.18,4.28-6.2.62-.86,1.24-1.72,1.88-2.56l.36-.48c.15-.2.29-.39.44-.57l.27-.37.25-.32a.93.93,0,0,0,.17-.83,33.5,33.5,0,0,1,0-18.62.94.94,0,0,1,1.84.33,34,34,0,0,0,1.87,14.31h0l1.28-1.51c1.08-1.24,2.16-2.46,3.27-3.65.44-.48.89-.95,1.33-1.42l.68-.7.68-.7.68-.68,1.17-1.16.3-.29.53-.51.17-.17.19-.18a.94.94,0,0,0,.27-.91,19.85,19.85,0,0,1,.35-11.34.94.94,0,0,1,1.84.36,27.24,27.24,0,0,0,.38,7.41,1,1,0,0,0,1.54.52l.34-.28.74-.63.75-.62.75-.61.76-.61.77-.6.76-.59h0A19.86,19.86,0,0,1,396,173.24a1,1,0,0,1,1.72.75,26.51,26.51,0,0,0-1.12,7.52l0,0,.63-.44.72-.5.61-.41,1-.66.8-.53.22-.14.39-.24,1-.61.92-.57,1.27-.76,1.16-.66,1.22-.68c.41-.23.83-.45,1.25-.67L409,174c1.26-.64,2.53-1.26,3.82-1.85h0a14.11,14.11,0,0,1,2.64-9,.94.94,0,0,1,1.65.85,10.76,10.76,0,0,0-.46,5.32.93.93,0,0,0,1.25.62c1.26-.5,2.54-1,3.84-1.41l1-.33c.64-.21,1.28-.42,1.94-.62l1.95-.59,1.37-.39,1.33-.35h0c1.1-.29,2.21-.56,3.34-.81-.21.06-.6.2-1.16.42l-.23.09-1.19.49-.24.1-.78.35-.28.12c-1.13.51-2.47,1.14-4,1.91l-.78.39c-.83.42-1.7.88-2.62,1.37l-.45.25q-2,1.06-4.16,2.35l-.8.47-.53.32c-.51.31-1,.62-1.55.95-.76.46-1.53.94-2.31,1.45l-.58.36-.65.43a31.18,31.18,0,0,0,9.4,1.94,1,1,0,0,1,.13,1.87,22.21,22.21,0,0,1-13.28-1.28h0q-2.07,1.44-4.22,3l-1.08.81-1.32,1-.87.67h0c.07.78.07.78.13,1.56,4.36,2.28,9.71,3.18,13.55,3.52a.94.94,0,0,1,.13,1.86A27.12,27.12,0,0,1,394,189.47h0l-.52.43-1,.9-.66.57c-1,.9-2.07,1.83-3.11,2.79a1,1,0,0,0,.19,1.53c4.4,2.38,9.88,3.3,13.79,3.65a.94.94,0,0,1,.13,1.86,26.74,26.74,0,0,1-17.24-2l-2.59.48c-.68.69-1.36,1.39-2,2.09l-.81.86-.18.19-.57.61-.24.26-.56.61c-.36.39-.71.78-1.06,1.18-.23.25-.46.5-.68.76l-.3.34c-.3.33-.59.67-.88,1a.6.6,0,0,0-.08.08c-.34.39-.68.79-1,1.19l-.75.88-.62.75c-.27.34-.55.67-.82,1s-.57.71-.86,1.07c-.61.77-1.23,1.55-1.84,2.34l-.43.57-.09.12-.71.94-.23.3-.88,1.2-.79,1.08c-.25.35-.5.7-.74,1.06l.42-.28a57.19,57.19,0,0,0,17.44,3.3,1,1,0,0,1,.13,1.88,40.79,40.79,0,0,1-19.12-2l-1.1.36-.33.49c-.17.26-.34.51-.5.77l-.56.85-.59.92c-.21.32-.42.65-.62,1-.32.5-.63,1-.94,1.51s-.45.74-.67,1.11c-.35.57-.69,1.14-1,1.72a.94.94,0,0,0,.55,1.38,56.56,56.56,0,0,0,14.66,2.37,1,1,0,0,1,.13,1.88A40.26,40.26,0,0,1,356,235.83h0l-.19.36-.6,1.1-.48.91q-1.18,2.25-2.31,4.57l-.61,1.26-.67,1.44a.94.94,0,0,0,.91,1.34,55.8,55.8,0,0,0,13.63-2.51.94.94,0,0,1,.72,1.74,40.45,40.45,0,0,1-16.83,4.3.93.93,0,0,0-.83.57c-.38.88-.74,1.77-1.1,2.67l-.5,1.26c-.18.47-.36.93-.53,1.4l0,.07-.3.79a1,1,0,0,1-.87.62h-1a1,1,0,0,1-.71-.33c-.37-.43-.72-.87-1.06-1.33a.93.93,0,0,1-.1-.95l.63-1.41C343.5,253.07,343.78,252.43,344.07,251.8Z"/><g class="cls-10"><path class="cls-5" d="M431.24,197.75c-4.61,3.56-7.09,7-8.62,12.61-1.08,4-.09,7.86-1.35,11.39a1.47,1.47,0,0,1-2.84-.35,21.37,21.37,0,0,1,.63-6.16c.57-2.43,2.34-8.33-3-6.13-5.22,2.14-2.28,10.51-1.67,16.51a1.46,1.46,0,0,1-2.89.43c-.92-5.35.26-14-5.76-14.43-7-.48-.77,12.85.53,15.77.84,1.84,5.36,10.16.32,8.65-2.84-.85-3.78-7.51-4.19-9.85s.5-7.58-1.34-9.22c-3.08-2.77-4.65,1.54-4.91,4-.57,5.56,6.59,11.49,6.54,17a1.46,1.46,0,0,1-2.5,1,17.15,17.15,0,0,1-3.81-5.47c-1.28-2.91-.67-5.75-1.61-8.39-2.56-7.15-6,2.54-3.38,7.25,1.18,2.13,9.86,11.34,5.33,14.14l0,0a1.87,1.87,0,0,1-.28.16l-.08,0h0c-4.25,1.67-9.41-16.82-10.14-19.45-.53-2,.51-3.68.75-5.58a1.46,1.46,0,0,0-.93-1.55c-8.82-3.51-3.45,11.37-1.71,14.77,1.49,2.91,3.65,6.53,3.93,9.81s-.92,8.4-4.23,5.06c-1.85-1.85-4.09-8.1-5-10.68-1.19-3.23-1.06-6.28-1.63-9.61-.46-2.67-2.56-8.08-5.57-4.64-1.52,1.73-.51,6.62,0,8.62,1.47,6.08,10.13,13,8.23,19.65a1.46,1.46,0,0,1-2.14.88c-4.63-2.81-6.9-13.25-8.44-17.53a19,19,0,0,1-1.14-5.09c-.1-1.75,1.14-4,.7-5.65-1.34-5.15-5.48-2.19-6.8,1-2.79,6.68,1,12,5.76,16.28,2.47,2.18,11.21,11.24,3.54,12.08C364,256,366.09,247,363.85,243c-1.56-2.79-4.61-3.5-6.32-6.2-1.48-2.34-1.17-5.29-3.79-6.94s-5-1.26-5.36,2c-.32,2.89,2.37,5.62,4.26,7.5,2.28,2.26,5.76,3.63,7.44,6.44,1.1,1.85,2,6.74-1.05,7.48s-9.53-8.22-11-10.28c-3.82-5.26-4.45-8.44-4.4-14.31a1.48,1.48,0,0,0-.9-1.36c-4.29-1.85-5.89,3.51-4.93,7.25,1.11,4.32,4.37,7.32,7.68,10.09,2,1.68,8.48,5.92,7.14,8.89-1.9,4.18-7.54,1-8.55-1.4-1.63-3.9-.72-6.12-5-9-2.7-1.79-6.11-4.2-9.45-4.57-4.37-.49-6.26,2.26-2.49,5.51,2.76,2.36,6.67,2.23,9.91,3.77,3.69,1.75,7,6.92,1.88,9.44-2.5,1.24-7.09.54-10.34-.17a1.46,1.46,0,0,0-1.77,1.41c0,.87,0,1.91-.05,2.83l0,.65a1.47,1.47,0,0,0,1.74,1.51,68.16,68.16,0,0,0,7.3-2c1.17-.35,2.36-.69,3.62-1l.06,0c3-.71,4.21-.75,5.07.6a11.16,11.16,0,0,1,1,2.5c.72,2.25,3.11,13.79,7.31,8.8,2.85-3.37-2.89-8.12-3.07-11.25,0-.19,0-.37,0-.54,0-4.63,4-3.37,6.45-.87a7.16,7.16,0,0,1,.63.73c2.57,3.39,2.74,7.74,2.71,11.78,0,2.72-.83,7.91,3.2,8.62,5.79,1,3.06-7.43,1.7-10-1.54-3-8.74-10.09-3-10.15,9.54-.1,10.33,15.93,18.65,18.22a1.46,1.46,0,0,0,1.82-1.33c.15-3-3.26-5.15-5.07-7.25-1.24-1.44-7.2-7.75-7-9.28.46-2.94,5.71-2.15,7.85-1.13,5.38,2.55,5.41,9.29,6.62,14.3,1.51,6.22,8.42,8.58,7.42.79-.69-5.47-6-9.38-8.76-13.8-4.18-6.74,3.06-3.08,6.12-.61,2.89,2.32,4.89,6,6.22,9.44,2,5.26-.71,13.24,6.11,15.76,10.14,3.74-1.09-18.63-3-21.48-1.8-2.7-4.88-3.85-7.29-5.72-2.58-2-4.19-5.35.44-5.44,2.88,0,4.82,2.93,6.3,4.84,3.53,4.54,5.57,12.23,10.7,15.24,8,4.71,8.94-3.55,4-8.14-3.82-3.53-8.18-6.31-12.33-9.26-1.29-.92-6.13-4.11-3-5.06,1.45-.43,5.18,2.21,6.37,2.86,4.43,2.42,7.51,5.77,11.52,8.76,2.61,2,15.16,6.56,11.8-.27-1.68-3.42-9.22-5.79-12.19-8.11-1.34-1.05-5.67-3.13-8.53-4.92a1.46,1.46,0,0,1,.71-2.69c3.16-.16,6.28.12,9.05,2,4.05,2.69,3.25,6.85,8.63,8,4.21.91,8.2-.18,4.93-4.62-2.15-2.92-6.81-4.79-9.93-6.46-2.05-1.1-7.77-2-9.26-3.63-3.84-4.13,5-1.3,6.79-.74,3,.91,22,8.33,20.74-.5-.64-4.4-11.14-3.07-17-3.11a1.46,1.46,0,0,1-.76-2.71c5.92-3.55,15.59-.76,20.4-4.91s-1.58-4.88-5.11-4.17c-2.48.5-7,3.73-10.08,4.2a1.46,1.46,0,0,1-1.38-2.32c2.35-3.09,6.92-6.78,9.35-8.8,3.36-2.8,13.28-3.82,13.63-9s-5.89-1.17-9.33,1.49c-.76.59-1.38,1.11-1.77,1.46-1.45,1.31-4.15,4.86-6.75,7.31a1.46,1.46,0,0,1-2.28-1.77,72.54,72.54,0,0,1,6.53-9.67c2.32-2.89,12.13-7.89,12.5-11.26C446.73,190.37,433.5,196,431.24,197.75Z"/></g><path class="cls-6" d="M16.11,132.92c5.89,4.62,10.93,6.63,18.46,6.74,5.37.08,9.81-2.37,14.62-1.91a1.88,1.88,0,0,1,.46,3.64,27.1,27.1,0,0,1-7.88,1.16c-3.21.07-11.13-.27-6.69,5.73,4.33,5.83,13.84-.48,21.11-3.15a1.88,1.88,0,0,1,1.46,3.47c-6.38,2.84-17.55,4.11-16.16,11.75,1.61,8.86,16.27-3.11,19.49-5.66,2-1.62,11-9.9,10.68-3.14-.17,3.81-8.17,7.09-10.95,8.35s-9.6,1.78-11.07,4.59c-2.47,4.71,3.4,5.31,6.55,4.85,7.12-1.05,12.24-11.86,19.18-13.56a1.88,1.88,0,0,1,2,2.81,22,22,0,0,1-5.61,6.48c-3.22,2.51-7,2.66-9.94,4.66-8.11,5.46,5.06,6.68,10.11,1.92,2.27-2.14,11-15.88,15.93-11.12l0,0,.28.29a.61.61,0,0,1,.07.1s0,0,0,0c3.43,4.77-18,17.07-21,18.81-2.27,1.28-4.75.52-7.2.82a1.9,1.9,0,0,0-1.63,1.65c-1.58,12.11,15.27.7,19-2.54,3.16-2.78,7-6.61,11-8s10.75-1.51,7.65,3.68c-1.73,2.88-8.81,7.66-11.72,9.65-3.65,2.51-7.5,3.31-11.47,5.08-3.18,1.41-9.26,5.74-4,8.41,2.63,1.34,8.41-1.46,10.75-2.7,7.1-3.77,12.94-16.75,21.89-16.5a1.89,1.89,0,0,1,1.77,2.4c-2,6.66-14.33,12.79-19.19,16.08a24.18,24.18,0,0,1-6,3c-2.15.69-5.31-.16-7.26.92-6,3.3-1,7.52,3.41,8.16,9.21,1.36,14.7-5.07,18.47-12.34,1.94-3.77,10.46-17.53,13.94-8.23,3.36,9-8.52,9.18-12.78,13.23-3,2.84-2.92,6.86-5.74,9.85-2.44,2.58-6.21,3.13-7.45,6.93s0,6.63,4.2,6c3.7-.52,6.25-4.74,8-7.69,2.09-3.56,2.7-8.32,5.67-11.31,2-2,7.77-4.58,9.65-1.07s-7.22,14.49-9.31,17c-5.36,6.43-9.12,8.22-16.45,10A1.9,1.9,0,0,0,81,233.91c-1,5.94,6.24,6.22,10.6,3.85,5-2.76,7.73-7.77,10.14-12.76,1.46-3,4.7-12.46,8.82-11.73,5.81,1,3.63,9.09,1,11.1-4.34,3.27-7.4,2.84-9.58,9-1.38,3.93-3.3,8.94-2.7,13.22.78,5.6,4.8,7.08,7.65,1.37,2.08-4.19.67-9,1.56-13.56,1-5.15,6.43-10.87,11.18-5.34,2.33,2.73,2.92,8.67,3.06,13a1.88,1.88,0,0,0,2.33,1.76c1.08-.27,2.37-.59,3.53-.83l.83-.17a1.88,1.88,0,0,0,1.32-2.65,88.45,88.45,0,0,0-4.75-8.47c-.8-1.35-1.61-2.73-2.36-4.2a.56.56,0,0,0,0-.08c-1.84-3.55-2.26-5-.85-6.51a14.32,14.32,0,0,1,2.79-2.07c2.58-1.61,16.21-8.25,8.66-11.91-5.11-2.47-9.21,6.18-13.06,7.39-.23.08-.45.13-.66.19-5.78,1.45-5.49-4-3.13-7.76a10.85,10.85,0,0,1,.71-1c3.41-4.28,8.78-5.87,13.83-7.12,3.4-.82,10.12-1.46,9.72-6.71-.58-7.53-10.23-1.47-13,1.05-3.19,2.86-9.81,14.1-11.72,6.92-3.15-11.86,16.59-17.93,16.8-29a1.86,1.86,0,0,0-2.23-1.84c-3.76.75-5.39,5.69-7.43,8.61-1.4,2-7.39,11.43-9.36,11.62-3.81.37-4.49-6.43-3.89-9.41,1.47-7.52,9.87-9.69,15.73-12.79,7.27-3.85,8-13.22-1.38-9.5-6.59,2.6-9.77,10.48-14.42,15.3-7.08,7.34-4.81-2.84-2.7-7.45,2-4.33,5.9-8,9.8-10.73,5.92-4.17,16.73-3.32,17.71-12.62,1.45-13.82-22.88,7.26-25.83,10.54-2.79,3.09-3.26,7.29-4.82,10.89-1.68,3.86-5.35,6.93-6.92,1.17-1-3.57,2.13-6.94,4-9.38,4.54-5.84,13.49-10.81,15.61-18.16,3.33-11.5-7.26-10-11.4-2.36-3.19,5.88-5.28,12.2-7.64,18.3-.73,1.91-3.18,8.94-5.36,5.3-1-1.66,1.11-7.15,1.54-8.84,1.62-6.29,4.82-11.2,7.28-17.14,1.6-3.87,3.37-21-4.08-14.62-3.73,3.18-4.29,13.32-6.25,17.76-.89,2-2.11,8.06-3.43,12.19a1.88,1.88,0,0,1-3.58,0c-1.19-3.89-1.83-7.86-.41-11.9,2.08-5.9,7.51-6.22,7.26-13.3-.2-5.53-2.82-10.16-7.33-4.68-3,3.6-3.82,10-4.91,14.43-.71,2.9,0,10.32-1.58,12.69-3.94,6.09-3.2-5.78-3.08-8.23.2-4,3.42-30.08-7.19-25.69-5.29,2.18-.3,14.85,1.5,22.13a1.89,1.89,0,0,1-3.14,1.81c-6.31-6.26-5.88-19.19-12.59-23.88s-5.58,3.52-3.57,7.69c1.4,2.94,6.85,7.5,8.43,11.24a1.88,1.88,0,0,1-2.46,2.45c-4.6-1.95-10.65-6.48-13.93-8.86-4.55-3.31-9-15.34-15.51-14.16s.42,7.72,4.82,11.17c1,.76,1.83,1.36,2.38,1.74,2.09,1.39,7.38,3.64,11.25,6.1a1.87,1.87,0,0,1-1.48,3.4,93.65,93.65,0,0,1-14.12-5.07c-4.34-2-13.68-12.62-18-12C2,116,13.21,130.66,16.11,132.92Z"/><path class="cls-7" d="M53.05,189.47h0l.52.43Z"/><path class="cls-7" d="M91,235.83h0c.06.12.12.24.19.36C91.16,236.07,91.1,236,91,235.83Z"/><path class="cls-8" d="M103,251.8c-.58-1.27-1.16-2.53-1.75-3.78h0C101.83,249.28,102.41,250.54,103,251.8Z"/><path class="cls-8" d="M53.74,183.92l.77.59-.76-.6Z"/><path class="cls-8" d="M78.47,209.33c.63.84,1.26,1.7,1.88,2.56C79.73,211,79.1,210.17,78.47,209.33Z"/><path class="cls-8" d="M22.4,167.6c-.65-.21-1.3-.4-1.95-.59Z"/><path class="cls-8" d="M34.22,172.12c1.29.59,2.56,1.21,3.82,1.85-1.25-.64-2.53-1.26-3.82-1.85Z"/><path class="cls-8" d="M72,201.28q-1.6-1.86-3.27-3.65Q70.38,199.42,72,201.28Z"/><path class="cls-8" d="M73.28,202.79h0L72,201.28Z"/><path class="cls-8" d="M87.06,221.87q1.32,2.08,2.59,4.23-1.28-2.15-2.59-4.24Z"/><path class="cls-8" d="M84.63,218.09h0c-1.39-2.11-2.82-4.18-4.28-6.19C81.81,213.91,83.23,216,84.63,218.09Z"/><path class="cls-8" d="M99.28,243.94l-.66-1.32c.22.44.43.88.65,1.33Z"/><path class="cls-8" d="M92.89,231.73c-1.06-1.9-2.13-3.77-3.23-5.62Q91.3,228.89,92.89,231.73Z"/><path class="cls-9" d="M7.74,164c2.09,15.51,12.57,33.46,23.08,48.09,11.49-1.67,31.37-3.76,40.2.45L35.2,218.07c3.75,4.92,7.34,9.3,10.38,12.87a76.1,76.1,0,0,0,52.18,26.6c1.29.1,2.38.14,3.22.16-.17-.46-.34-.93-.52-1.39l0-.07c-.17-.47-.35-.93-.53-1.4l-.5-1.26c-.44-1.09-.88-2.16-1.33-3.22a45,45,0,0,1-6.41-.65,1.59,1.59,0,0,1,.47-3.15c1.75.19,3.26.28,4.42.32-.44-1-.88-1.91-1.33-2.85l-.6-1.26c-.76-1.55-1.52-3.07-2.31-4.57-.16-.3-.32-.61-.49-.91-.25-.49-.52-1-.78-1.45h0a43.12,43.12,0,0,1-6,1.41,1.6,1.6,0,0,1-.61-3.13c2-.47,3.73-1,4.87-1.33-.53-.93-1.07-1.85-1.62-2.75-.22-.37-.44-.74-.67-1.11s-.62-1-.94-1.51c-.21-.33-.41-.66-.62-1l-.6-.92c-.18-.29-.36-.57-.55-.85s-.34-.51-.5-.77-.5-.73-.74-1.1h0A44,44,0,0,1,75,224.92a1.59,1.59,0,0,1-.6-3.13,51.28,51.28,0,0,0,6.49-1.89l.42.28-.75-1.06L79.73,218l-.88-1.2-.23-.3-.71-.94-.1-.12-.43-.57-1.83-2.34-.86-1.07c-.27-.33-.55-.66-.82-1l-.62-.75-.75-.88-1-1.19-.08-.08c-.29-.34-.58-.68-.88-1l-.3-.34-.68-.76c-.35-.4-.71-.79-1.06-1.18l-.56-.61-.26-.27-.54-.59-.19-.2-.81-.86c-.84-.87-1.67-1.73-2.51-2.57l-1.54-.27a27.78,27.78,0,0,1-12.59,2.9,1.59,1.59,0,0,1-.27-3.16A29.45,29.45,0,0,0,59.31,195q-2-1.91-4.05-3.66l-.65-.57-1.2-1-.75-.08a28,28,0,0,1-13.28,3.24,1.59,1.59,0,0,1-.28-3.16,29.68,29.68,0,0,0,10-3.56h0l-1.1-.87-.87-.67-1.32-1-1.08-.81q-2.16-1.59-4.23-3h0a23.35,23.35,0,0,1-6.61,1.67,1.59,1.59,0,0,1-.53-3.13,25.16,25.16,0,0,0,3.39-1.07l-.66-.43-.57-.36c-.78-.51-1.55-1-2.31-1.45-.52-.33-1-.64-1.55-.95l-.53-.32-.8-.47Q28.1,172,26.13,171l-.46-.25c-.91-.49-1.79-.95-2.61-1.37l-.78-.39c-1.53-.77-2.87-1.4-4-1.91l-.27-.12-.78-.35-.24-.1L15.79,166l-.23-.09c-.57-.22-1-.36-1.16-.42,1.13.25,2.24.52,3.34.81-1-.37-1.92-.72-2.83-1,.91.32,1.86.66,2.84,1h0l1.33.35,1.37.39c.65.19,1.3.38,1.95.59l1.94.62,1,.33q2.4.82,4.72,1.76a7.08,7.08,0,0,0,.34-4.53,1.26,1.26,0,0,1,2.35-.81,14.7,14.7,0,0,1,1.51,7.15c1.29.59,2.57,1.21,3.82,1.85l1.25.65,1.24.67c.42.22.83.45,1.23.68l1.15.66c.43.25.86.5,1.28.76-3.66-3.88-7.94-13.7-10.44-20a50,50,0,0,0-23.83,2.94A3.48,3.48,0,0,0,7.76,163l2.07.57L7.76,163A3.34,3.34,0,0,0,7.74,164Zm5.63.68c-1.23-.41-2.39-.78-3.47-1.09C11,163.94,12.14,164.31,13.37,164.72Zm.2.06,1.12.38Z"/><path class="cls-7" d="M93.88,233.53c.24.43.47.85.69,1.28s.46.85.69,1.28.46.86.68,1.29.46.86.68,1.3.45.87.67,1.3c.45.87.89,1.75,1.33,2.64l.66,1.32a46,46,0,0,0,5.52-13.41,1.26,1.26,0,0,1,2.46.54,73.31,73.31,0,0,1-6,17c.59,1.25,1.17,2.51,1.75,3.78.3.63.58,1.27.87,1.91s.57,1.28.86,1.92a39.37,39.37,0,0,0,4.06-7.24,49.61,49.61,0,0,0-4.93-48C103,219.27,95,231.87,93.88,233.53Z"/><path class="cls-9" d="M95.57,190.57c-.15,13.1-.58,37.25-1.74,42.85-.31-.57-.62-1.13-.94-1.69-1.06-1.9-2.13-3.77-3.23-5.62a0,0,0,0,1,0,0q-1.28-2.15-2.59-4.24a41.69,41.69,0,0,0,2.18-14.71,1.26,1.26,0,0,0-2.51-.05,59.92,59.92,0,0,1-2.1,11c-1.39-2.11-2.82-4.18-4.28-6.19-.62-.87-1.25-1.72-1.88-2.56l-.36-.48c-.15-.2-.29-.39-.44-.57s-.18-.25-.28-.37-.36-.47-.54-.7a34,34,0,0,0,.87-16.12,1.26,1.26,0,0,0-2.5.23,31.19,31.19,0,0,1-1.94,11.46L72,201.28q-1.6-1.86-3.27-3.65c-.44-.48-.89-.95-1.34-1.42-.22-.24-.44-.47-.67-.7l-.68-.7c-.22-.23-.45-.46-.68-.68L64.19,193l-.3-.29-.53-.51-.18-.17-.59-.56a20.55,20.55,0,0,0,.54-8.89,1.26,1.26,0,0,0-2.5.17,21,21,0,0,1-.88,6.14c-.48-.43-1-.86-1.47-1.28l-.75-.63-.74-.62-.76-.61-.75-.61-.77-.6-.76-.6a20.62,20.62,0,0,0-1.33-7.9,1.26,1.26,0,0,0-2.41.7,22.53,22.53,0,0,1,.47,4.8l0,0-.62-.44-.72-.5-.61-.41-1-.66-.8-.53-.22-.14-.39-.24-1-.61-4.34-19.43C60.93,162.77,81.34,175.89,95.57,190.57Z"/><path class="cls-9" d="M108.78,248.39a39.37,39.37,0,0,1-4.06,7.24c-.29-.64-.57-1.29-.86-1.92s-.57-1.28-.87-1.91c-.58-1.27-1.16-2.53-1.75-3.78,1.53-3.11,4.83-9.79,6.26-16.39a1.34,1.34,0,0,0-2.61-.64,48.81,48.81,0,0,1-5.61,12.95l-.66-1.32c-.44-.89-.88-1.77-1.33-2.64-.22-.43-.44-.87-.67-1.3s-.45-.87-.68-1.3-.45-.86-.68-1.29-.45-.86-.69-1.28-.45-.85-.69-1.28c1.11-1.66,9.1-14.26,10-33.16A49.61,49.61,0,0,1,108.78,248.39Z"/><path class="cls-6" d="M103,251.8c-.58-1.26-1.16-2.52-1.75-3.77h0c2-4.06,6.77-14.71,6.61-23a1,1,0,0,0-1.88-.12c-.83,5.13-2.68,12.83-6.69,19.07h0c-.22-.45-.43-.89-.65-1.33-.44-.89-.88-1.77-1.33-2.64-.22-.43-.44-.87-.67-1.3s-.45-.87-.68-1.3-.45-.86-.68-1.29-.45-.86-.69-1.28-.45-.85-.69-1.28a.54.54,0,0,0,0-.11c-.31-.57-.62-1.13-.94-1.69q-1.59-2.85-3.23-5.62a0,0,0,0,1,0,0q-1.28-2.15-2.59-4.23h0a40.61,40.61,0,0,0,1.74-19.25,1,1,0,0,0-1.88.13,56.61,56.61,0,0,1-2.29,15.34h0c-1.4-2.12-2.82-4.18-4.28-6.2-.62-.86-1.25-1.72-1.88-2.56l-.36-.48c-.15-.2-.29-.39-.44-.57s-.18-.25-.28-.37a3.92,3.92,0,0,0-.25-.32,1,1,0,0,1-.16-.83,33.5,33.5,0,0,0,0-18.62.94.94,0,0,0-1.84.33,34,34,0,0,1-1.87,14.31h0L72,201.28q-1.62-1.86-3.27-3.65c-.44-.48-.89-.95-1.34-1.42-.22-.24-.44-.47-.67-.7l-.68-.7c-.22-.23-.45-.46-.68-.68L64.19,193l-.3-.29-.53-.51-.18-.17-.18-.18a.94.94,0,0,1-.27-.91,19.94,19.94,0,0,0-.35-11.34.94.94,0,0,0-1.84.36,26.86,26.86,0,0,1-.39,7.41.94.94,0,0,1-1.54.52l-.33-.28-.75-.63-.74-.62-.76-.61-.75-.61-.77-.6-.77-.59h0a19.86,19.86,0,0,0-2.67-10.67,1,1,0,0,0-1.72.75,26.51,26.51,0,0,1,1.12,7.52l0,0-.62-.44-.72-.5-.61-.41-1-.66-.8-.53-.22-.14-.39-.24-1-.61-.92-.57c-.42-.26-.85-.51-1.28-.76L41.76,176c-.4-.23-.81-.46-1.23-.68l-1.24-.67L38,174c-1.26-.64-2.53-1.26-3.82-1.85h0a14.11,14.11,0,0,0-2.64-9,.94.94,0,0,0-1.65.85,10.76,10.76,0,0,1,.46,5.32.94.94,0,0,1-1.26.62c-1.26-.5-2.53-1-3.83-1.41l-1-.33-1.94-.62L20.45,167l-1.37-.39-1.33-.35h0c-1.1-.29-2.21-.56-3.34-.81.21.06.59.2,1.16.42l.23.09,1.19.49.24.1.78.35.27.12c1.14.51,2.48,1.14,4,1.91l.78.39c.82.42,1.7.88,2.61,1.37l.46.25q2,1.06,4.16,2.35l.8.47.53.32c.51.31,1,.62,1.55.95.76.46,1.53.94,2.31,1.45l.57.36.66.43a31.24,31.24,0,0,1-9.4,1.94,1,1,0,0,0-.13,1.87,22.22,22.22,0,0,0,13.28-1.28h0q2.07,1.44,4.23,3l1.08.81,1.32,1,.87.67h0l-.14,1.56c-4.35,2.28-9.7,3.18-13.55,3.52a.94.94,0,0,0-.12,1.86,27.12,27.12,0,0,0,18.89-2.81h0l.52.43,1,.9.65.57c1,.9,2.07,1.83,3.11,2.79a1,1,0,0,1-.18,1.53c-4.4,2.38-9.88,3.3-13.8,3.65a.94.94,0,0,0-.12,1.86,26.75,26.75,0,0,0,17.24-2l2.59.48c.68.69,1.36,1.39,2,2.09l.81.86.18.19.57.61.24.26.56.61c.35.39.71.78,1.06,1.18l.68.76.3.34c.3.33.59.67.88,1l.08.08,1,1.19.75.88.62.75c.27.34.55.67.82,1l.86,1.07,1.83,2.34.43.57.1.12.71.94.23.3.88,1.2.78,1.08.75,1.06-.42-.28a57.27,57.27,0,0,1-17.44,3.3.94.94,0,0,0-.13,1.88,40.74,40.74,0,0,0,19.11-2l1.11.36.33.49c.16.26.33.51.5.77s.37.56.55.85l.6.92c.21.32.41.65.62,1,.32.5.63,1,.94,1.51s.45.74.67,1.11c.34.57.69,1.14,1,1.72a1,1,0,0,1-.55,1.38,56.56,56.56,0,0,1-14.66,2.37,1,1,0,0,0-.13,1.88A40.26,40.26,0,0,0,91,235.83h0c.06.12.12.24.19.36.2.36.4.73.59,1.1s.33.61.49.91c.79,1.5,1.55,3,2.31,4.57l.6,1.26c.23.48.46,1,.68,1.44a1,1,0,0,1-.92,1.34,55.73,55.73,0,0,1-13.62-2.51.94.94,0,0,0-.72,1.74,40.44,40.44,0,0,0,16.82,4.3.93.93,0,0,1,.84.57c.37.88.74,1.77,1.1,2.67l.5,1.26c.18.47.36.93.53,1.4l0,.07.3.79a1,1,0,0,0,.87.62h1a1,1,0,0,0,.71-.33c.37-.43.72-.87,1.06-1.33a1,1,0,0,0,.1-.95l-.63-1.41C103.57,253.07,103.29,252.43,103,251.8Z"/><path class="cls-5" d="M15.83,197.75c4.61,3.56,7.09,7,8.62,12.61,1.08,4,.08,7.86,1.35,11.39a1.46,1.46,0,0,0,2.83-.35,20.69,20.69,0,0,0-.63-6.16c-.56-2.43-2.33-8.33,3-6.13s2.28,10.51,1.67,16.51a1.46,1.46,0,0,0,2.89.43c.92-5.35-.26-14,5.76-14.43,7-.48.77,12.85-.54,15.77-.83,1.84-5.35,10.16-.31,8.65,2.84-.85,3.78-7.51,4.19-9.85S44.2,218.61,46,217c3.07-2.77,4.65,1.54,4.91,4,.57,5.56-6.59,11.49-6.55,17a1.47,1.47,0,0,0,2.51,1,17.31,17.31,0,0,0,3.81-5.47c1.28-2.91.67-5.75,1.61-8.39,2.56-7.15,6,2.54,3.38,7.25-1.18,2.13-9.86,11.34-5.33,14.14l0,0,.28.16.09,0h0C55.07,248.45,60.23,230,61,227.33c.53-2-.51-3.68-.76-5.58a1.48,1.48,0,0,1,.94-1.55c8.82-3.51,3.44,11.37,1.71,14.77-1.5,2.91-3.65,6.53-3.93,9.81s.92,8.4,4.23,5.06c1.84-1.85,4.09-8.1,5-10.68,1.19-3.23,1.06-6.28,1.63-9.61.46-2.67,2.55-8.08,5.57-4.64,1.51,1.73.51,6.62,0,8.62-1.47,6.08-10.14,13-8.23,19.65a1.46,1.46,0,0,0,2.14.88c4.63-2.81,6.89-13.25,8.44-17.53a18.58,18.58,0,0,0,1.13-5.09c.11-1.75-1.14-4-.7-5.65,1.35-5.15,5.49-2.19,6.81,1,2.79,6.68-1,12-5.77,16.28-2.46,2.18-11.2,11.24-3.53,12.08C83.1,256,81,247,83.22,243c1.56-2.79,4.61-3.5,6.32-6.2,1.48-2.34,1.17-5.29,3.79-6.94s5-1.26,5.36,2c.32,2.89-2.37,5.62-4.26,7.5-2.28,2.26-5.76,3.63-7.44,6.44-1.1,1.85-2,6.74,1.05,7.48s9.53-8.22,11-10.28c3.82-5.26,4.45-8.44,4.4-14.31a1.48,1.48,0,0,1,.9-1.36c4.29-1.85,5.88,3.51,4.93,7.25-1.11,4.32-4.37,7.32-7.68,10.09-2,1.68-8.48,5.92-7.14,8.89,1.89,4.18,7.54,1,8.55-1.4,1.63-3.9.71-6.12,5-9,2.7-1.79,6.11-4.2,9.45-4.57,4.37-.49,6.25,2.26,2.49,5.51-2.76,2.36-6.68,2.23-9.92,3.77-3.68,1.75-7,6.92-1.88,9.44,2.51,1.24,7.1.54,10.35-.17a1.46,1.46,0,0,1,1.77,1.41c0,.87,0,1.91,0,2.83l0,.65a1.47,1.47,0,0,1-1.74,1.51,68.16,68.16,0,0,1-7.3-2c-1.17-.35-2.36-.69-3.62-1l-.07,0c-3-.71-4.21-.75-5.06.6a11.16,11.16,0,0,0-1,2.5c-.72,2.25-3.11,13.79-7.31,8.8-2.85-3.37,2.89-8.12,3.07-11.25,0-.19,0-.37,0-.54,0-4.63-4-3.37-6.45-.87a7.16,7.16,0,0,0-.63.73c-2.57,3.39-2.74,7.74-2.71,11.78,0,2.72.83,7.91-3.2,8.62-5.79,1-3.07-7.43-1.7-10,1.54-3,8.74-10.09,3-10.15C76,260.72,75.22,276.75,66.91,279a1.46,1.46,0,0,1-1.82-1.33c-.15-3,3.26-5.15,5.07-7.25,1.24-1.44,7.2-7.75,7-9.28-.45-2.94-5.7-2.15-7.84-1.13-5.38,2.55-5.41,9.29-6.62,14.3-1.51,6.22-8.43,8.58-7.43.79.7-5.47,6-9.38,8.77-13.8,4.18-6.74-3.06-3.08-6.12-.61-2.89,2.32-4.89,6-6.22,9.44-2,5.26.71,13.24-6.11,15.76-10.14,3.74,1.09-18.63,3-21.48,1.8-2.7,4.88-3.85,7.29-5.72,2.58-2,4.19-5.35-.45-5.44-2.87,0-4.82,2.93-6.3,4.84-3.53,4.54-5.56,12.23-10.69,15.24-8,4.71-8.94-3.55-4-8.14,3.82-3.53,8.18-6.31,12.33-9.26,1.29-.92,6.13-4.11,3-5.06-1.45-.43-5.18,2.21-6.37,2.86-4.43,2.42-7.52,5.77-11.52,8.76-2.61,2-15.16,6.56-11.8-.27,1.68-3.42,9.22-5.79,12.18-8.11,1.35-1.05,5.68-3.13,8.53-4.92a1.46,1.46,0,0,0-.7-2.69c-3.16-.16-6.28.12-9,2-4.05,2.69-3.25,6.85-8.63,8-4.21.91-8.2-.18-4.93-4.62,2.14-2.92,6.81-4.79,9.93-6.46,2.05-1.1,7.77-2,9.26-3.63,3.83-4.13-5-1.3-6.8-.74-3,.91-22,8.33-20.73-.5.63-4.4,11.14-3.07,17-3.11a1.46,1.46,0,0,0,.76-2.71c-5.92-3.55-15.59-.76-20.41-4.91S8,225,11.54,225.67c2.48.5,7,3.73,10.08,4.2A1.46,1.46,0,0,0,23,227.55c-2.35-3.09-6.91-6.78-9.34-8.8-3.36-2.8-13.28-3.82-13.64-9s5.9-1.17,9.34,1.49c.76.59,1.38,1.11,1.76,1.46,1.46,1.31,4.16,4.86,6.76,7.31a1.46,1.46,0,0,0,2.28-1.77,72.54,72.54,0,0,0-6.53-9.67c-2.32-2.89-12.13-7.89-12.51-11.26C.34,190.37,13.57,196,15.83,197.75Z"/><path class="cls-5" d="M431.24,197.75c-4.61,3.56-7.09,7-8.62,12.61-1.08,4-.09,7.86-1.35,11.39a1.47,1.47,0,0,1-2.84-.35,21.37,21.37,0,0,1,.63-6.16c.57-2.43,2.34-8.33-3-6.13-5.22,2.14-2.28,10.51-1.67,16.51a1.46,1.46,0,0,1-2.89.43c-.92-5.35.26-14-5.76-14.43-7-.48-.77,12.85.53,15.77.84,1.84,5.36,10.16.32,8.65-2.84-.85-3.78-7.51-4.19-9.85s.5-7.58-1.34-9.22c-3.08-2.77-4.65,1.54-4.91,4-.57,5.56,6.59,11.49,6.54,17a1.46,1.46,0,0,1-2.5,1,17.15,17.15,0,0,1-3.81-5.47c-1.28-2.91-.67-5.75-1.61-8.39-2.56-7.15-6,2.54-3.38,7.25,1.18,2.13,9.86,11.34,5.33,14.14l0,0a1.87,1.87,0,0,1-.28.16l-.08,0h0c-4.25,1.67-9.41-16.82-10.14-19.45-.53-2,.51-3.68.75-5.58a1.46,1.46,0,0,0-.93-1.55c-8.82-3.51-3.45,11.37-1.71,14.77,1.49,2.91,3.65,6.53,3.93,9.81s-.92,8.4-4.23,5.06c-1.85-1.85-4.09-8.1-5-10.68-1.19-3.23-1.06-6.28-1.63-9.61-.46-2.67-2.56-8.08-5.57-4.64-1.52,1.73-.51,6.62,0,8.62,1.47,6.08,10.13,13,8.23,19.65a1.46,1.46,0,0,1-2.14.88c-4.63-2.81-6.9-13.25-8.44-17.53a19,19,0,0,1-1.14-5.09c-.1-1.75,1.14-4,.7-5.65-1.34-5.15-5.48-2.19-6.8,1-2.79,6.68,1,12,5.76,16.28,2.47,2.18,11.21,11.24,3.54,12.08C364,256,366.09,247,363.85,243c-1.56-2.79-4.61-3.5-6.32-6.2-1.48-2.34-1.17-5.29-3.79-6.94s-5-1.26-5.36,2c-.32,2.89,2.37,5.62,4.26,7.5,2.28,2.26,5.76,3.63,7.44,6.44,1.1,1.85,2,6.74-1.05,7.48s-9.53-8.22-11-10.28c-3.82-5.26-4.45-8.44-4.4-14.31a1.48,1.48,0,0,0-.9-1.36c-4.29-1.85-5.89,3.51-4.93,7.25,1.11,4.32,4.37,7.32,7.68,10.09,2,1.68,8.48,5.92,7.14,8.89-1.9,4.18-7.54,1-8.55-1.4-1.63-3.9-.72-6.12-5-9-2.7-1.79-6.11-4.2-9.45-4.57-4.37-.49-6.26,2.26-2.49,5.51,2.76,2.36,6.67,2.23,9.91,3.77,3.69,1.75,7,6.92,1.88,9.44-2.5,1.24-7.09.54-10.34-.17a1.46,1.46,0,0,0-1.77,1.41c0,.87,0,1.91-.05,2.83l0,.65a1.47,1.47,0,0,0,1.74,1.51,68.16,68.16,0,0,0,7.3-2c1.17-.35,2.36-.69,3.62-1l.06,0c3-.71,4.21-.75,5.07.6a11.16,11.16,0,0,1,1,2.5c.72,2.25,3.11,13.79,7.31,8.8,2.85-3.37-2.89-8.12-3.07-11.25,0-.19,0-.37,0-.54,0-4.63,4-3.37,6.45-.87a7.16,7.16,0,0,1,.63.73c2.57,3.39,2.74,7.74,2.71,11.78,0,2.72-.83,7.91,3.2,8.62,5.79,1,3.06-7.43,1.7-10-1.54-3-8.74-10.09-3-10.15,9.54-.1,10.33,15.93,18.65,18.22a1.46,1.46,0,0,0,1.82-1.33c.15-3-3.26-5.15-5.07-7.25-1.24-1.44-7.2-7.75-7-9.28.46-2.94,5.71-2.15,7.85-1.13,5.38,2.55,5.41,9.29,6.62,14.3,1.51,6.22,8.42,8.58,7.42.79-.69-5.47-6-9.38-8.76-13.8-4.18-6.74,3.06-3.08,6.12-.61,2.89,2.32,4.89,6,6.22,9.44,2,5.26-.71,13.24,6.11,15.76,10.14,3.74-1.09-18.63-3-21.48-1.8-2.7-4.88-3.85-7.29-5.72-2.58-2-4.19-5.35.44-5.44,2.88,0,4.82,2.93,6.3,4.84,3.53,4.54,5.57,12.23,10.7,15.24,8,4.71,8.94-3.55,4-8.14-3.82-3.53-8.18-6.31-12.33-9.26-1.29-.92-6.13-4.11-3-5.06,1.45-.43,5.18,2.21,6.37,2.86,4.43,2.42,7.51,5.77,11.52,8.76,2.61,2,15.16,6.56,11.8-.27-1.68-3.42-9.22-5.79-12.19-8.11-1.34-1.05-5.67-3.13-8.53-4.92a1.46,1.46,0,0,1,.71-2.69c3.16-.16,6.28.12,9.05,2,4.05,2.69,3.25,6.85,8.63,8,4.21.91,8.2-.18,4.93-4.62-2.15-2.92-6.81-4.79-9.93-6.46-2.05-1.1-7.77-2-9.26-3.63-3.84-4.13,5-1.3,6.79-.74,3,.91,22,8.33,20.74-.5-.64-4.4-11.14-3.07-17-3.11a1.46,1.46,0,0,1-.76-2.71c5.92-3.55,15.59-.76,20.4-4.91s-1.58-4.88-5.11-4.17c-2.48.5-7,3.73-10.08,4.2a1.46,1.46,0,0,1-1.38-2.32c2.35-3.09,6.92-6.78,9.35-8.8,3.36-2.8,13.28-3.82,13.63-9s-5.89-1.17-9.33,1.49c-.76.59-1.38,1.11-1.77,1.46-1.45,1.31-4.15,4.86-6.75,7.31a1.46,1.46,0,0,1-2.28-1.77,72.54,72.54,0,0,1,6.53-9.67c2.32-2.89,12.13-7.89,12.5-11.26C446.73,190.37,433.5,196,431.24,197.75Z"/><g class="cls-10"><path class="cls-5" d="M431.24,197.75c-4.61,3.56-7.09,7-8.62,12.61-1.08,4-.09,7.86-1.35,11.39a1.47,1.47,0,0,1-2.84-.35,21.37,21.37,0,0,1,.63-6.16c.57-2.43,2.34-8.33-3-6.13-5.22,2.14-2.28,10.51-1.67,16.51a1.46,1.46,0,0,1-2.89.43c-.92-5.35.26-14-5.76-14.43-7-.48-.77,12.85.53,15.77.84,1.84,5.36,10.16.32,8.65-2.84-.85-3.78-7.51-4.19-9.85s.5-7.58-1.34-9.22c-3.08-2.77-4.65,1.54-4.91,4-.57,5.56,6.59,11.49,6.54,17a1.46,1.46,0,0,1-2.5,1,17.15,17.15,0,0,1-3.81-5.47c-1.28-2.91-.67-5.75-1.61-8.39-2.56-7.15-6,2.54-3.38,7.25,1.18,2.13,9.86,11.34,5.33,14.14l0,0a1.87,1.87,0,0,1-.28.16l-.08,0h0c-4.25,1.67-9.41-16.82-10.14-19.45-.53-2,.51-3.68.75-5.58a1.46,1.46,0,0,0-.93-1.55c-8.82-3.51-3.45,11.37-1.71,14.77,1.49,2.91,3.65,6.53,3.93,9.81s-.92,8.4-4.23,5.06c-1.85-1.85-4.09-8.1-5-10.68-1.19-3.23-1.06-6.28-1.63-9.61-.46-2.67-2.56-8.08-5.57-4.64-1.52,1.73-.51,6.62,0,8.62,1.47,6.08,10.13,13,8.23,19.65a1.46,1.46,0,0,1-2.14.88c-4.63-2.81-6.9-13.25-8.44-17.53a19,19,0,0,1-1.14-5.09c-.1-1.75,1.14-4,.7-5.65-1.34-5.15-5.48-2.19-6.8,1-2.79,6.68,1,12,5.76,16.28,2.47,2.18,11.21,11.24,3.54,12.08C364,256,366.09,247,363.85,243c-1.56-2.79-4.61-3.5-6.32-6.2-1.48-2.34-1.17-5.29-3.79-6.94s-5-1.26-5.36,2c-.32,2.89,2.37,5.62,4.26,7.5,2.28,2.26,5.76,3.63,7.44,6.44,1.1,1.85,2,6.74-1.05,7.48s-9.53-8.22-11-10.28c-3.82-5.26-4.45-8.44-4.4-14.31a1.48,1.48,0,0,0-.9-1.36c-4.29-1.85-5.89,3.51-4.93,7.25,1.11,4.32,4.37,7.32,7.68,10.09,2,1.68,8.48,5.92,7.14,8.89-1.9,4.18-7.54,1-8.55-1.4-1.63-3.9-.72-6.12-5-9-2.7-1.79-6.11-4.2-9.45-4.57-4.37-.49-6.26,2.26-2.49,5.51,2.76,2.36,6.67,2.23,9.91,3.77,3.69,1.75,7,6.92,1.88,9.44-2.5,1.24-7.09.54-10.34-.17a1.46,1.46,0,0,0-1.77,1.41c0,.87,0,1.91-.05,2.83l0,.65a1.47,1.47,0,0,0,1.74,1.51,68.16,68.16,0,0,0,7.3-2c1.17-.35,2.36-.69,3.62-1l.06,0c3-.71,4.21-.75,5.07.6a11.16,11.16,0,0,1,1,2.5c.72,2.25,3.11,13.79,7.31,8.8,2.85-3.37-2.89-8.12-3.07-11.25,0-.19,0-.37,0-.54,0-4.63,4-3.37,6.45-.87a7.16,7.16,0,0,1,.63.73c2.57,3.39,2.74,7.74,2.71,11.78,0,2.72-.83,7.91,3.2,8.62,5.79,1,3.06-7.43,1.7-10-1.54-3-8.74-10.09-3-10.15,9.54-.1,10.33,15.93,18.65,18.22a1.46,1.46,0,0,0,1.82-1.33c.15-3-3.26-5.15-5.07-7.25-1.24-1.44-7.2-7.75-7-9.28.46-2.94,5.71-2.15,7.85-1.13,5.38,2.55,5.41,9.29,6.62,14.3,1.51,6.22,8.42,8.58,7.42.79-.69-5.47-6-9.38-8.76-13.8-4.18-6.74,3.06-3.08,6.12-.61,2.89,2.32,4.89,6,6.22,9.44,2,5.26-.71,13.24,6.11,15.76,10.14,3.74-1.09-18.63-3-21.48-1.8-2.7-4.88-3.85-7.29-5.72-2.58-2-4.19-5.35.44-5.44,2.88,0,4.82,2.93,6.3,4.84,3.53,4.54,5.57,12.23,10.7,15.24,8,4.71,8.94-3.55,4-8.14-3.82-3.53-8.18-6.31-12.33-9.26-1.29-.92-6.13-4.11-3-5.06,1.45-.43,5.18,2.21,6.37,2.86,4.43,2.42,7.51,5.77,11.52,8.76,2.61,2,15.16,6.56,11.8-.27-1.68-3.42-9.22-5.79-12.19-8.11-1.34-1.05-5.67-3.13-8.53-4.92a1.46,1.46,0,0,1,.71-2.69c3.16-.16,6.28.12,9.05,2,4.05,2.69,3.25,6.85,8.63,8,4.21.91,8.2-.18,4.93-4.62-2.15-2.92-6.81-4.79-9.93-6.46-2.05-1.1-7.77-2-9.26-3.63-3.84-4.13,5-1.3,6.79-.74,3,.91,22,8.33,20.74-.5-.64-4.4-11.14-3.07-17-3.11a1.46,1.46,0,0,1-.76-2.71c5.92-3.55,15.59-.76,20.4-4.91s-1.58-4.88-5.11-4.17c-2.48.5-7,3.73-10.08,4.2a1.46,1.46,0,0,1-1.38-2.32c2.35-3.09,6.92-6.78,9.35-8.8,3.36-2.8,13.28-3.82,13.63-9s-5.89-1.17-9.33,1.49c-.76.59-1.38,1.11-1.77,1.46-1.45,1.31-4.15,4.86-6.75,7.31a1.46,1.46,0,0,1-2.28-1.77,72.54,72.54,0,0,1,6.53-9.67c2.32-2.89,12.13-7.89,12.5-11.26C446.73,190.37,433.5,196,431.24,197.75Z"/></g><g class="cls-10"><path class="cls-5" d="M15.83,197.75c4.61,3.56,7.09,7,8.62,12.61,1.08,4,.08,7.86,1.35,11.39a1.46,1.46,0,0,0,2.83-.35,20.69,20.69,0,0,0-.63-6.16c-.56-2.43-2.33-8.33,3-6.13s2.28,10.51,1.67,16.51a1.46,1.46,0,0,0,2.89.43c.92-5.35-.26-14,5.76-14.43,7-.48.77,12.85-.54,15.77-.83,1.84-5.35,10.16-.31,8.65,2.84-.85,3.78-7.51,4.19-9.85S44.2,218.61,46,217c3.07-2.77,4.65,1.54,4.91,4,.57,5.56-6.59,11.49-6.55,17a1.47,1.47,0,0,0,2.51,1,17.31,17.31,0,0,0,3.81-5.47c1.28-2.91.67-5.75,1.61-8.39,2.56-7.15,6,2.54,3.38,7.25-1.18,2.13-9.86,11.34-5.33,14.14l0,0,.28.16.09,0h0C55.07,248.45,60.23,230,61,227.33c.53-2-.51-3.68-.76-5.58a1.48,1.48,0,0,1,.94-1.55c8.82-3.51,3.44,11.37,1.71,14.77-1.5,2.91-3.65,6.53-3.93,9.81s.92,8.4,4.23,5.06c1.84-1.85,4.09-8.1,5-10.68,1.19-3.23,1.06-6.28,1.63-9.61.46-2.67,2.55-8.08,5.57-4.64,1.51,1.73.51,6.62,0,8.62-1.47,6.08-10.14,13-8.23,19.65a1.46,1.46,0,0,0,2.14.88c4.63-2.81,6.89-13.25,8.44-17.53a18.58,18.58,0,0,0,1.13-5.09c.11-1.75-1.14-4-.7-5.65,1.35-5.15,5.49-2.19,6.81,1,2.79,6.68-1,12-5.77,16.28-2.46,2.18-11.2,11.24-3.53,12.08C83.1,256,81,247,83.22,243c1.56-2.79,4.61-3.5,6.32-6.2,1.48-2.34,1.17-5.29,3.79-6.94s5-1.26,5.36,2c.32,2.89-2.37,5.62-4.26,7.5-2.28,2.26-5.76,3.63-7.44,6.44-1.1,1.85-2,6.74,1.05,7.48s9.53-8.22,11-10.28c3.82-5.26,4.45-8.44,4.4-14.31a1.48,1.48,0,0,1,.9-1.36c4.29-1.85,5.88,3.51,4.93,7.25-1.11,4.32-4.37,7.32-7.68,10.09-2,1.68-8.48,5.92-7.14,8.89,1.89,4.18,7.54,1,8.55-1.4,1.63-3.9.71-6.12,5-9,2.7-1.79,6.11-4.2,9.45-4.57,4.37-.49,6.25,2.26,2.49,5.51-2.76,2.36-6.68,2.23-9.92,3.77-3.68,1.75-7,6.92-1.88,9.44,2.51,1.24,7.1.54,10.35-.17a1.46,1.46,0,0,1,1.77,1.41c0,.87,0,1.91,0,2.83l0,.65a1.47,1.47,0,0,1-1.74,1.51,68.16,68.16,0,0,1-7.3-2c-1.17-.35-2.36-.69-3.62-1l-.07,0c-3-.71-4.21-.75-5.06.6a11.16,11.16,0,0,0-1,2.5c-.72,2.25-3.11,13.79-7.31,8.8-2.85-3.37,2.89-8.12,3.07-11.25,0-.19,0-.37,0-.54,0-4.63-4-3.37-6.45-.87a7.16,7.16,0,0,0-.63.73c-2.57,3.39-2.74,7.74-2.71,11.78,0,2.72.83,7.91-3.2,8.62-5.79,1-3.07-7.43-1.7-10,1.54-3,8.74-10.09,3-10.15C76,260.72,75.22,276.75,66.91,279a1.46,1.46,0,0,1-1.82-1.33c-.15-3,3.26-5.15,5.07-7.25,1.24-1.44,7.2-7.75,7-9.28-.45-2.94-5.7-2.15-7.84-1.13-5.38,2.55-5.41,9.29-6.62,14.3-1.51,6.22-8.43,8.58-7.43.79.7-5.47,6-9.38,8.77-13.8,4.18-6.74-3.06-3.08-6.12-.61-2.89,2.32-4.89,6-6.22,9.44-2,5.26.71,13.24-6.11,15.76-10.14,3.74,1.09-18.63,3-21.48,1.8-2.7,4.88-3.85,7.29-5.72,2.58-2,4.19-5.35-.45-5.44-2.87,0-4.82,2.93-6.3,4.84-3.53,4.54-5.56,12.23-10.69,15.24-8,4.71-8.94-3.55-4-8.14,3.82-3.53,8.18-6.31,12.33-9.26,1.29-.92,6.13-4.11,3-5.06-1.45-.43-5.18,2.21-6.37,2.86-4.43,2.42-7.52,5.77-11.52,8.76-2.61,2-15.16,6.56-11.8-.27,1.68-3.42,9.22-5.79,12.18-8.11,1.35-1.05,5.68-3.13,8.53-4.92a1.46,1.46,0,0,0-.7-2.69c-3.16-.16-6.28.12-9,2-4.05,2.69-3.25,6.85-8.63,8-4.21.91-8.2-.18-4.93-4.62,2.14-2.92,6.81-4.79,9.93-6.46,2.05-1.1,7.77-2,9.26-3.63,3.83-4.13-5-1.3-6.8-.74-3,.91-22,8.33-20.73-.5.63-4.4,11.14-3.07,17-3.11a1.46,1.46,0,0,0,.76-2.71c-5.92-3.55-15.59-.76-20.41-4.91S8,225,11.54,225.67c2.48.5,7,3.73,10.08,4.2A1.46,1.46,0,0,0,23,227.55c-2.35-3.09-6.91-6.78-9.34-8.8-3.36-2.8-13.28-3.82-13.64-9s5.9-1.17,9.34,1.49c.76.59,1.38,1.11,1.76,1.46,1.46,1.31,4.16,4.86,6.76,7.31a1.46,1.46,0,0,0,2.28-1.77,72.54,72.54,0,0,0-6.53-9.67c-2.32-2.89-12.13-7.89-12.51-11.26C.34,190.37,13.57,196,15.83,197.75Z"/></g><path class="cls-11" d="M264.63,255.25c-1.54-.75-3.36-1.13-4.36-2.73-1.11-1.78-.71-4.29-.27-6.46,2.57-12.65,5.1-25.76,3.19-38.58l-26.66,6.67c-.19,4.59-3.48,8.39-3.55,13a20.19,20.19,0,0,0,.94,5.39,153.57,153.57,0,0,1,4.7,28.26c.18,2.45.37,5.14,1.8,6.89a7.48,7.48,0,0,0,4.21,2.22,52,52,0,0,0,14.15,1.47,14.44,14.44,0,0,0,6.32-1.29,8.08,8.08,0,0,0,4.24-5.48A9,9,0,0,0,264.63,255.25Z"/><g class="cls-12"><path class="cls-11" d="M264.63,255.25c-1.54-.75-3.36-1.13-4.36-2.73-1.11-1.78-.71-4.29-.27-6.46,2.57-12.65,5.1-25.76,3.19-38.58l-26.66,6.67c-.19,4.59-3.48,8.39-3.55,13a20.19,20.19,0,0,0,.94,5.39,153.57,153.57,0,0,1,4.7,28.26c.18,2.45.37,5.14,1.8,6.89a7.48,7.48,0,0,0,4.21,2.22,52,52,0,0,0,14.15,1.47,14.44,14.44,0,0,0,6.32-1.29,8.08,8.08,0,0,0,4.24-5.48A9,9,0,0,0,264.63,255.25Z"/></g><path class="cls-11" d="M340.22,271.44a16.33,16.33,0,0,0-5.63-9.56,11.22,11.22,0,0,0-8.93-2.29c-5-39.78,2-40.93,6.34-60.92,1-4.71,2.16-9.43,2.24-14.24s-1-9.81-4-13.57l-37.76,43.9a186.61,186.61,0,0,1,6.34,32.1,21.46,21.46,0,0,0,4.72,11.53,13.9,13.9,0,0,1,2.85,8.45c.07,3.84-.62,8.37,2.25,10.92a10.09,10.09,0,0,0,5.25,1.95,87.74,87.74,0,0,0,17.66,1c3.55-.16,7.53-.73,8.65-5.3A8.93,8.93,0,0,0,340.22,271.44Z"/><g class="cls-12"><path class="cls-11" d="M340.22,271.44a16.33,16.33,0,0,0-5.63-9.56,11.22,11.22,0,0,0-8.93-2.29c-5-39.78,2-40.93,6.34-60.92,1-4.71,2.16-9.43,2.24-14.24s-1-9.81-4-13.57l-37.76,43.9a186.61,186.61,0,0,1,6.34,32.1,21.46,21.46,0,0,0,4.72,11.53,13.9,13.9,0,0,1,2.85,8.45c.07,3.84-.62,8.37,2.25,10.92a10.09,10.09,0,0,0,5.25,1.95,87.74,87.74,0,0,0,17.66,1c3.55-.16,7.53-.73,8.65-5.3A8.93,8.93,0,0,0,340.22,271.44Z"/></g><path class="cls-13" d="M333.66,270.56a1,1,0,0,0-1.73,1,10,10,0,0,1,.79,7.89c-.39,1.23,1.54,1.76,1.93.53A12,12,0,0,0,333.66,270.56Z"/><path class="cls-13" d="M337.69,267.71a1,1,0,0,0-1.73,1,11.77,11.77,0,0,1,1.27,8.87,1,1,0,0,0,1.94.54A13.91,13.91,0,0,0,337.69,267.71Z"/><path class="cls-11" d="M228.5,157.07c-2.9-4.15-3.26-9.59-2.51-14.59s2.48-9.8,3.41-14.77a38.18,38.18,0,0,0-2.1-22.32,28.17,28.17,0,0,0-13.16-14,11.17,11.17,0,0,1,4.28,4.37,33.2,33.2,0,0,0-34.15,3.64c2.93-2.12,7.22-1.71,10.11.45a13.11,13.11,0,0,1,4.83,9.34,26.73,26.73,0,0,1-1.55,10.65c-2,6.09-5,11.85-6.31,18.11s-.71,13.44,3.74,18a7.55,7.55,0,0,1-5-3.43,19.28,19.28,0,0,0,10.8,13.6,11,11,0,0,1-5.16-.69,46.35,46.35,0,0,0,42.7,9.54l3.32-14C237.37,163.44,231.39,161.21,228.5,157.07Z"/><path class="cls-11" d="M329.36,162.48a1.66,1.66,0,0,0-.06.21c-.05.15-.09.32-.15.47a123.51,123.51,0,0,1-4.33,12.13c-5.11,12.15-12.46,23.3-23.25,30.61-13,8.8-29.28,10.92-44.93,12a203.45,203.45,0,0,1-21.38.58,108.4,108.4,0,0,1-11.08-.92c-4-.56-8.24-1.49-11.14-4.32s-3.84-6.65-4.37-10.47c-2.41-17.37,5.67-36.29,21-44.81,10.71-5.95,23.51-6.54,35.77-6.23,9.21.23,18.55.87,27.67-.16,1.91-.22,3.82-.51,5.71-.89.74-.16,1.48-.32,2.22-.5l1-.25,2.57,1.18,2.07,1,16.31,7.46h0l4.28,2,.09.05Z"/><path class="cls-11" d="M343.18,155.06A24.33,24.33,0,0,1,342,167.82a1.66,1.66,0,0,1-.1.29,23.93,23.93,0,0,1-2.45,4.74h0c-.28.43-.59.87-.91,1.28a58.06,58.06,0,0,1-4.28,4.75,28.21,28.21,0,0,0-4.41,5.53c-2.22,3.9-2.25,9.72,1.57,12.08a5.35,5.35,0,0,1-4.94-4.24,24.15,24.15,0,0,0,2,14.95,9.75,9.75,0,0,1-5.54-6.69,30,30,0,0,1-15.65,16.93,17,17,0,0,0,2.65-9.67,43.09,43.09,0,0,1-27,15.62,13.52,13.52,0,0,0,4.56-7.38,53.24,53.24,0,0,1-24.77,6.7,28,28,0,0,0,8.78-6.29,89.23,89.23,0,0,1-30.82,2.89c-1.79-.13-3.56-.33-5.31-.58l-.09-.23-.35-1.05c.38-9.69,5.2-18.78,11.66-26s14.52-12.81,22.55-18.23,16.22-10.75,23.07-17.61c.72-.72,1.45-1.47,2.23-2.14a9.67,9.67,0,0,1,3.31-2.05,2.94,2.94,0,0,0,1.08-.71,27.76,27.76,0,0,0,3-3.63l.32-.42c1.91-2.6,3.89-5.24,5.32-5,13.58,2.44,26.43,8.45,36.81-.65q1.22,8.91,2.41,17.83C345.48,157.58,344.34,156.32,343.18,155.06Z"/><path class="cls-14" d="M329.83,184.41c-2.22,3.9-2.25,9.72,1.57,12.08a5.35,5.35,0,0,1-4.94-4.24,24.15,24.15,0,0,0,2,14.95,9.77,9.77,0,0,1-5.55-6.69,30,30,0,0,1-15.64,16.93,17,17,0,0,0,2.64-9.67,43,43,0,0,1-27,15.62,13.52,13.52,0,0,0,4.56-7.38,53.27,53.27,0,0,1-24.77,6.7,28,28,0,0,0,8.78-6.29,89.29,89.29,0,0,1-30.83,2.89,32.91,32.91,0,0,1,10.64-6c7.5-2.6,15.54-3.15,23.35-4.66s15.78-4.22,21.1-10.11q-1.53,3.09-3,6.17a46.49,46.49,0,0,0,16.07-19.88,25.37,25.37,0,0,1-.29,10.9,39.69,39.69,0,0,0,13.45-20.27c5.72-1.54,11.59-3.1,17.5-2.58-.28.43-.59.87-.91,1.28C335.79,177.7,332.05,180.5,329.83,184.41Z"/><path class="cls-1" d="M341.89,168.11a23.93,23.93,0,0,1-2.45,4.74h0c-.28.43-.59.87-.91,1.28a58.06,58.06,0,0,1-4.28,4.75c-2.93-1.2-6.12-2.33-9.42-3.59-9.93-3.85-21-9-30.4-21.83-.45-.61-.88-1.23-1.32-1.87l1.33-.16a10.89,10.89,0,0,0,7.32-4.31l0-.05c.05-.18.1-.39.14-.57a1.19,1.19,0,0,1,.18.15,39.66,39.66,0,0,0,3.69,2.88,3.69,3.69,0,0,1,.34.25,163.08,163.08,0,0,0,16.81,9.76h0c1.43.75,2.89,1.47,4.31,2.17l.45.2v0l1.56.75c4.38,2.09,8.47,3.88,11.68,5.07Z"/><ellipse class="cls-9" cx="333.73" cy="182.21" rx="5.22" ry="6.22"/><path class="cls-15" d="M337.87,182.21c0,2.5-1.7,4.53-3.8,4.53s-3.8-2-3.8-4.53,1.7-4.54,3.8-4.54S337.87,179.7,337.87,182.21Z"/><path class="cls-11" d="M385.6,113.19c-1-2-2.78-3.31-4.57-4.54A225.26,225.26,0,0,0,358,95.26a4.09,4.09,0,0,0-5.2,1.2,108.49,108.49,0,0,0-6.56,10h0a3.88,3.88,0,0,0,4.67,1.56l2-.76a2.34,2.34,0,0,1,1.61-.21c.8.29,1,1.29,1.15,2.14,1.22,9.11,2.83,18.64,8.53,25.85,1.42,1.79,3.16,3.64,3.13,5.92a7,7,0,0,0,2.86-3.69l.87,4.38a22.32,22.32,0,0,0,6.48-12.07c.55,1.22,1.1,2.44,1.66,3.66A48,48,0,0,0,383.59,120a4.14,4.14,0,0,1,1.87,2.3C386.23,119.31,387,116,385.6,113.19Z"/><g class="cls-12"><path class="cls-11" d="M385.6,113.19c-1-2-2.78-3.31-4.57-4.54A225.26,225.26,0,0,0,358,95.26a4.09,4.09,0,0,0-5.2,1.2,108.49,108.49,0,0,0-6.56,10h0a3.88,3.88,0,0,0,4.67,1.56l2-.76a2.34,2.34,0,0,1,1.61-.21c.8.29,1,1.29,1.15,2.14,1.22,9.11,2.83,18.64,8.53,25.85,1.42,1.79,3.16,3.64,3.13,5.92a7,7,0,0,0,2.86-3.69l.87,4.38a22.32,22.32,0,0,0,6.48-12.07c.55,1.22,1.1,2.44,1.66,3.66A48,48,0,0,0,383.59,120a4.14,4.14,0,0,1,1.87,2.3C386.23,119.31,387,116,385.6,113.19Z"/></g><path class="cls-11" d="M369.39,134.22a22.71,22.71,0,0,1-3,15.77c-.79-1.68-1.58-3.34-2.38-5a22,22,0,0,1-12.63,21.11,21,21,0,0,1-9.39,1.74,8.55,8.55,0,0,1-1-.06,22,22,0,0,1-11.83-4.6,13.55,13.55,0,0,1-1.41-1.22v0a3.26,3.26,0,0,1-.39-.36l-.1-.11s0,0,0,.06l0,.21c.29,1.48.57,3,.85,4.45a22.4,22.4,0,0,1-13.46-8.69c.35,1.61.69,3.23,1,4.85a16.31,16.31,0,0,1-9.06-10.25,15.49,15.49,0,0,1-.5-2.3c0-.26-.07-.54-.09-.81a4,4,0,0,1-.25.56,6.14,6.14,0,0,1-5.39,3.25c.21-.86.41-1.72.63-2.58.24-1,.49-2.09.75-3.13.05-.18.1-.39.14-.57.6-2.5,1.21-5,1.82-7.52a15.17,15.17,0,0,0-3.65,6.56,13.87,13.87,0,0,0-.37,1.79c-.11-.39-.22-.79-.31-1.19a33.36,33.36,0,0,1,1.51-20.23l-3.95-.12a85.91,85.91,0,0,1,12.1-21.91,15,15,0,0,0-5.41,2.53,16,16,0,0,1,13.95-5.83l-4.75-1.89a17.56,17.56,0,0,1,13.48.65l.34-.79a17.44,17.44,0,0,1,12.4-2.19l-3.36,2c7.36-1.3,15.66,0,20.85,5.34,4.21,4.38,5.68,10.62,7.29,16.47s3.88,12,8.92,15.4C371.66,135.11,370.53,134.66,369.39,134.22Z"/><path class="cls-16" d="M346.74,151.86A8.61,8.61,0,0,0,352,155a9.09,9.09,0,0,0,6-.81,8.21,8.21,0,0,0,4.22-7.63,2.36,2.36,0,0,0,.08-.45,3,3,0,0,0-.82-2.21c-1-2-2.8-3.63-4.36-5.23l-5.86-6c-.39-.39-1.07.14-.68.54l5.56,5.72a41.58,41.58,0,0,1,3.63,3.86,8.1,8.1,0,0,0-2.53-.48,13.7,13.7,0,0,0-4,.38,11.58,11.58,0,0,0-6.06,3.41A4.66,4.66,0,0,0,346.74,151.86Z"/><path class="cls-16" d="M325.43,148.77c0-.55.83-.68.86-.13.1,2.78,2.88,4.14,5.3,4.45,2.24.3,4.91-.28,6.58,1.63a11,11,0,0,1,1.64,3.29,6.25,6.25,0,0,0,2.05,2.88,7.57,7.57,0,0,0,6.05,1.11c2.82-.64,5.16-2.61,7-4.72a.43.43,0,0,1,.68,0,2.49,2.49,0,0,0,3.94.45c.38-.4,1.08.12.69.52a3.35,3.35,0,0,1-5,0,15.57,15.57,0,0,1-5.92,4.27,8.87,8.87,0,0,1-6.75-.15,6.71,6.71,0,0,1-2.59-2.07,20.38,20.38,0,0,1-1.7-3.67,3.7,3.7,0,0,0-3-2.4c-1.32-.16-2.65-.06-4-.25C328.58,153.53,325.54,151.85,325.43,148.77Z"/><path class="cls-16" d="M325.33,133.44a3.28,3.28,0,0,0,.08.41,3.21,3.21,0,0,0,6.22-1.6C330.64,128.38,324.82,129.78,325.33,133.44Z"/><path class="cls-16" d="M353,129.44c0,.14.05.28.08.42a3.21,3.21,0,0,0,6.22-1.61C358.31,124.38,352.49,125.79,353,129.44Z"/><g class="cls-12"><path class="cls-11" d="M318.35,123.48a8.25,8.25,0,0,1,9.43-6.31c1.1.18.89,1.91-.21,1.72a6.59,6.59,0,0,0-7.49,4.81.89.89,0,0,1-1,.75A.87.87,0,0,1,318.35,123.48Z"/><path class="cls-11" d="M350.43,115.11a2.34,2.34,0,0,1,2.06-1.82,5.29,5.29,0,0,1,2.78.63,9.75,9.75,0,0,1,3.94,3.34.89.89,0,0,1-.14,1.22.86.86,0,0,1-1.21-.14,8.17,8.17,0,0,0-2.76-2.57,6.79,6.79,0,0,0-1.77-.72,1.73,1.73,0,0,0-.82,0,.64.64,0,0,0-.3.19s-.07.12-.06.08a.89.89,0,0,1-1,.76A.89.89,0,0,1,350.43,115.11Z"/></g><path class="cls-11" d="M283.39,120.6c.49-2.12,2-3.85,3.44-5.45A223.9,223.9,0,0,1,306.29,96.9a4.1,4.1,0,0,1,5.34,0,105.72,105.72,0,0,1,8.65,8.28h0a3.89,3.89,0,0,1-4.2,2.58l-2.13-.3a2.41,2.41,0,0,0-1.62.16c-.72.47-.72,1.5-.64,2.35.87,9.15,1.44,18.8-2.49,27.11-1,2.06-2.25,4.25-1.71,6.47a7,7,0,0,1-3.62-3c.05,1.5.09,3,.14,4.48a22.38,22.38,0,0,1-9-10.3c-.27,1.31-.53,2.62-.79,3.93a47.63,47.63,0,0,1-7.29-11.89,4.05,4.05,0,0,0-1.3,2.66C284.17,126.7,282.7,123.64,283.39,120.6Z"/><g class="cls-12"><path class="cls-11" d="M283.39,120.6c.49-2.12,2-3.85,3.44-5.45A223.9,223.9,0,0,1,306.29,96.9a4.1,4.1,0,0,1,5.34,0,105.72,105.72,0,0,1,8.65,8.28h0a3.89,3.89,0,0,1-4.2,2.58l-2.13-.3a2.41,2.41,0,0,0-1.62.16c-.72.47-.72,1.5-.64,2.35.87,9.15,1.44,18.8-2.49,27.11-1,2.06-2.25,4.25-1.71,6.47a7,7,0,0,1-3.62-3c.05,1.5.09,3,.14,4.48a22.38,22.38,0,0,1-9-10.3c-.27,1.31-.53,2.62-.79,3.93a47.63,47.63,0,0,1-7.29-11.89,4.05,4.05,0,0,0-1.3,2.66C284.17,126.7,282.7,123.64,283.39,120.6Z"/></g><path class="cls-11" d="M212.9,192.87a46.77,46.77,0,0,1-14.19,21.71c-3.34,2.87-7.12,5.3-9.84,8.76s-4.06,7.36-5.47,11.33c-3.67,10.3-7.38,20.74-8.19,31.64a8.09,8.09,0,0,0,.38,3.86c.87,2,3,3,5,3.85,4.4,1.88,8.93,3.79,13.71,3.87s9.91-2.11,11.89-6.46a10.66,10.66,0,0,0-1-10.05,14.24,14.24,0,0,0-8.54-5.77,23.64,23.64,0,0,1,16-22.07c3.2-1,6.72-1.4,9.38-3.45a28.31,28.31,0,0,0,3.54-3.79c4.09-4.61,9.73-7.51,15.23-10.3Z"/><path class="cls-13" d="M198.52,266.8a1,1,0,0,0-1.94.53,10.14,10.14,0,0,1-1.85,8.92,1,1,0,0,0,0,1.42,1,1,0,0,0,1.42,0A12.28,12.28,0,0,0,198.52,266.8Z"/><path class="cls-13" d="M204.08,264.28a1,1,0,0,0-1.23-.7,1,1,0,0,0-.7,1.24,21.34,21.34,0,0,1-.64,10.28c-.38,1.23,1.55,1.76,1.94.53A23.71,23.71,0,0,0,204.08,264.28Z"/><path class="cls-11" d="M272.09,266.69c-1.54-.21-3.57-.61-3.68-2.15a3,3,0,0,1,.56-1.69,143.69,143.69,0,0,0,18.08-60.35l-34.34,2.41c-1.76,4.57-3.37,17.66-3.56,22.56l2.18-1.76c-.66,7.47-1.33,15-3.58,22.16-1,3.07-2.23,6.14-2.25,9.36a41.55,41.55,0,0,0,.9,6.64,65.56,65.56,0,0,1,.38,11.47,12.67,12.67,0,0,0,.89,6.06c1.06,2.06,3.15,3.38,5.25,4.36a32.42,32.42,0,0,0,25.5.72,10.51,10.51,0,0,0,4.5-3c2.24-2.86,1.55-7.15-.42-10.19A15,15,0,0,0,272.09,266.69Z"/><path class="cls-13" d="M275.75,277.76a1,1,0,0,0-1.93.53,14.24,14.24,0,0,1-.52,8.32,1,1,0,1,0,1.93.54A16,16,0,0,0,275.75,277.76Z"/><path class="cls-13" d="M280.35,273.3a1,1,0,0,0-1.24-.7,1,1,0,0,0-.7,1.23,15.59,15.59,0,0,1,.22,10.46c-.4,1.22,1.53,1.75,1.94.53A17.44,17.44,0,0,0,280.35,273.3Z"/><path class="cls-1" d="M133.3,173.72c-14.1,6.82-18.43,24.76-10,38a30.35,30.35,0,0,1,5,18.72s-.5,11.52-7.14,21.37a18.76,18.76,0,0,0-1.79,3.1q-3.21,7.51,2.74,10.62a12.47,12.47,0,0,0,6.72,1.27l13.65-1s8.73-3.81,9.55-24.54c0,0-1.36-29.12,8.53-39.23,4.19-4.29,6.12-10.44,4.17-16.11C160.42,173.48,146.25,167.45,133.3,173.72Z"/><path class="cls-17" d="M133.3,173.72c-14.1,6.82-18.43,24.76-10,38a30.35,30.35,0,0,1,5,18.72s-.5,11.52-7.14,21.37a18.76,18.76,0,0,0-1.79,3.1q-3.21,7.51,2.74,10.62a12.47,12.47,0,0,0,6.72,1.27l13.65-1s8.73-3.81,9.55-24.54c0,0-1.36-29.12,8.53-39.23,4.19-4.29,6.12-10.44,4.17-16.11C160.42,173.48,146.25,167.45,133.3,173.72Z"/><path class="cls-1" d="M162,97.31A86.23,86.23,0,0,0,148.8,83a5.32,5.32,0,0,0-3.08-1.68,4.31,4.31,0,0,0-3.13,1.61c-2.15,2.29-3.15,5.42-3.84,8.49a116.55,116.55,0,0,0-1.91,13l-1.08,10.06,33.92.6A43.47,43.47,0,0,0,162,97.31Z"/><path class="cls-5" d="M157.42,99A61.52,61.52,0,0,0,148,88.73a3.68,3.68,0,0,0-2.2-1.19,3,3,0,0,0-2.23,1.14,12.73,12.73,0,0,0-2.75,6.07,85.57,85.57,0,0,0-1.36,9.31l-.78,7.19,24.24.43A30.89,30.89,0,0,0,157.42,99Z"/><path class="cls-1" d="M115.76,99.43a85.77,85.77,0,0,0-19.48-.79,5.27,5.27,0,0,0-3.36,1A4.34,4.34,0,0,0,91.83,103c.1,3.14,1.6,6.07,3.28,8.73A115.18,115.18,0,0,0,103,122.27l6.33,7.89,24.45-23.52A43.42,43.42,0,0,0,115.76,99.43Z"/><path class="cls-5" d="M113.65,103.86a60.49,60.49,0,0,0-13.91-.57,3.76,3.76,0,0,0-2.4.7,3.06,3.06,0,0,0-.78,2.39,12.76,12.76,0,0,0,2.34,6.24,84,84,0,0,0,5.61,7.56c1.51,1.87,3,3.75,4.52,5.63L126.5,109A30.86,30.86,0,0,0,113.65,103.86Z"/><path class="cls-1" d="M175,160.47c30.51,17.58,46.68,46.64,52.49,84l-57.6,27.81-1.26-1.06a99,99,0,0,1-31.5-47.33l-.09-.31-12.49-41.69Z"/><g class="cls-18"><path class="cls-19" d="M197.66,166.94c-3.29-1.27-6.66-2.38-10.22-1.76a8.8,8.8,0,0,0-6.81,5.85c-1,2.64-1.07,5.42-2.62,7.71a12.17,12.17,0,0,1-5.57,4.21,17.34,17.34,0,0,1-8,1c-3.36-.28-6.71-1-10.09-.59a12,12,0,0,0-8.46,4.66c-1.72,2.25-2.73,5-4.46,7.23a16.05,16.05,0,0,1-15.48,5.67,1.9,1.9,0,0,0-2.28,1.29,1.87,1.87,0,0,0,1.3,2.28,19.89,19.89,0,0,0,16.47-4,21.49,21.49,0,0,0,5.28-6.73c1.3-2.38,2.59-4.89,5.22-6,2.91-1.24,6.28-.79,9.31-.42a28.4,28.4,0,0,0,9.47,0c5.55-1.16,10.57-4.84,12.2-10.43.81-2.8.89-6.33,3.86-7.67,3.12-1.4,6.85.1,9.91,1.29a1.88,1.88,0,0,0,2.28-1.3A1.9,1.9,0,0,0,197.66,166.94Z"/><path class="cls-19" d="M223.09,192.11a1.87,1.87,0,0,0-2.45.91c-2.08,5.52-8,7.78-13.29,9.36a71.13,71.13,0,0,0-9.57,3.3,40.32,40.32,0,0,0-8.38,5.17c-5.08,4.11-8.93,9.56-14.25,13.36a18.27,18.27,0,0,1-8.21,3.46c-3.27.42-6.55,0-9.82-.14A28.72,28.72,0,0,0,145.67,229a63.09,63.09,0,0,0-10.13,5.16,1.86,1.86,0,0,0-.42,2.58,1.89,1.89,0,0,0,2.58.42,60,60,0,0,1,8.77-4.51,24.08,24.08,0,0,1,9.66-1.53c3.4.11,6.8.57,10.2.29a21.31,21.31,0,0,0,9.45-3.22c5.62-3.46,9.53-8.89,14.42-13.22a36.85,36.85,0,0,1,7.8-5.35,55.78,55.78,0,0,1,9.56-3.49c6.47-1.91,13.85-4.72,16.44-11.6A1.91,1.91,0,0,0,223.09,192.11Z"/><path class="cls-19" d="M238.49,214.37a1.88,1.88,0,0,0-2.53-.66c-5.66,3.84-12.49,5.09-19.15,6-3.43.46-7.05.61-10.36,1.67a12.7,12.7,0,0,0-4.79,2.72,24.14,24.14,0,0,0-3.28,4,19,19,0,0,1-6.17,6,22.29,22.29,0,0,1-8.13,2.58,33.43,33.43,0,0,1-9.06-.16c-3.92-.62-7.77-1.66-11.73-2.12a22,22,0,0,0-12,1.72,19.83,19.83,0,0,0-8.31,7.38c-1.28,2,1.92,3.88,3.19,1.87a16.35,16.35,0,0,1,6.56-5.86,18,18,0,0,1,9.71-1.5c3.82.34,7.54,1.41,11.32,2a37.12,37.12,0,0,0,9.53.43c6.22-.59,12.44-2.94,16.42-7.95,2-2.45,3.43-5.55,6.31-7s6.41-1.54,9.52-1.95c7.71-1,15.72-2.19,22.3-6.66A1.9,1.9,0,0,0,238.49,214.37Z"/><path class="cls-19" d="M233.66,237.21a26.08,26.08,0,0,0-9.09-.77,11.27,11.27,0,0,0-7.19,4.12c-1.71,2.06-3,4.46-4.86,6.37a20.82,20.82,0,0,1-6.27,4.23c-5.19,2.35-10.94,2.84-16.55,3.1-6.34.28-12.81.27-19,2-5.86,1.65-11.43,4.86-14.74,10.11-1.27,2,1.93,3.87,3.19,1.86,2.59-4.1,7-6.66,11.52-8.1,5.71-1.8,11.73-1.88,17.66-2.12s11.72-.62,17.22-2.62a27.19,27.19,0,0,0,7.08-3.71,24.89,24.89,0,0,0,5.48-5.92c1.52-2.21,3-4.59,5.72-5.4,2.86-.86,6-.19,8.82.42a1.85,1.85,0,0,0,1-3.57Z"/><path class="cls-19" d="M213.54,174.73a1.87,1.87,0,0,0-2.53-.67,346.72,346.72,0,0,1-29.55,18.17,154.84,154.84,0,0,1-15.39,7.19,147,147,0,0,1-16.94,5.4c-6.59,1.72-13.25,3.27-19.68,5.56a1.89,1.89,0,0,0-1.29,2.27,1.87,1.87,0,0,0,2.28,1.29c11.37-4,23.37-5.93,34.67-10.21a185.89,185.89,0,0,0,31.26-15.8c5.58-3.43,11.06-7,16.5-10.67A1.9,1.9,0,0,0,213.54,174.73Z"/></g><path class="cls-14" d="M187.28,233.64c-.64-14.31-5.11-28.65-13.83-39.49s-21.91-17.81-35.23-17.06l-22.94-5.87c-1.88,12.63-2.61,38.94,8.29,58.85.93-2.6,2.67-6.3,3.6-8.9a15.21,15.21,0,0,0,7.23,14.24c.39-1.72.77-3.44,1.16-5.17a29.13,29.13,0,0,0,3.73,16.8c.84-3.14,1.69-6.28,2.53-9.42,4.88,14.15,17,25.13,30.82,27.88,4.46-3.88,9-7.92,11.7-13.37C187.09,246.53,187.57,240,187.28,233.64Z"/><path class="cls-14" d="M187.51,136.61l-1.64-.56c1.37,7.78-3.55,11.46-3.55,11.46v-2.73c-1.76,6.68-4.64,8.29-4.64,8.29V149l-1.8,4.6c5.64,2,5.22,8.49,5.22,8.49l-2.45-1.91c.27,4.91-4.91,5.73-4.91,5.73l1.08-2.46c-32.58,12-27.81,41.32-27.81,41.32-26.32-4.92-30.53-23.59-30.53-23.59l.27,4.77c-3.55-3.68-4-11.59-4-11.59l-1.5,4c-2.2-9,2.78-15,5.95-17.84l-1.18-2.21c-13.64,1.51-14.18-9.4-14.18-9.4l-.14,3.13c-3.13-2.59-3.26-8.85-3.26-8.85a14.84,14.84,0,0,0-1.1,5.44c-2.73-4.36,0-11.72,0-11.72.27-.58.54-1.15.81-1.7a27.41,27.41,0,0,1,24.5-3.56c2.38.83,4.73,2,7.26,1.94,4.18-.16,7.57-3.82,11.75-4.11,3-.24,5.93,1.38,9,1.72,4.77.56,9.27-2,13.87-3.38a29.3,29.3,0,0,1,20.59,1.69C187.72,133.56,187.51,136.61,187.51,136.61Z"/><path class="cls-20" d="M119.84,162.47a12,12,0,0,0-3.92,12.92c.24.75,1.43.43,1.19-.33a10.83,10.83,0,0,1,3.6-11.72C121.34,162.85,120.46,162,119.84,162.47Z"/><path class="cls-20" d="M127.32,212.42A47.11,47.11,0,0,1,121,179.36a45.57,45.57,0,0,1,2.67-9.23c.3-.74-.89-1.06-1.19-.33a48.32,48.32,0,0,0-.55,34.34,46.68,46.68,0,0,0,4.34,8.9C126.68,213.71,127.74,213.09,127.32,212.42Z"/><path class="cls-20" d="M122.79,219.26a26.6,26.6,0,0,1-4.21-18.3c.1-.77-1.08-1.11-1.19-.33a27.89,27.89,0,0,0,4.33,19.25C122.16,220.54,123.23,219.92,122.79,219.26Z"/><path class="cls-20" d="M138.67,228.1A69,69,0,0,1,130.88,190c.07-.79-1.17-.78-1.23,0A70.35,70.35,0,0,0,134,220.71a69.44,69.44,0,0,0,3.63,8C138,229.42,139,228.8,138.67,228.1Z"/><path class="cls-20" d="M145.66,219.09a49.18,49.18,0,0,1-4.55-21.55.62.62,0,0,0-1.23,0,50.34,50.34,0,0,0,4.72,22.17C144.93,220.43,146,219.8,145.66,219.09Z"/><path class="cls-20" d="M168.61,153.59a.62.62,0,0,0-.33,1.19,6.07,6.07,0,0,1,4.29,6.34.63.63,0,0,0,.62.62.62.62,0,0,0,.61-.62A7.3,7.3,0,0,0,168.61,153.59Z"/><path class="cls-20" d="M134.33,163a7.9,7.9,0,0,1-2.34-7c.14-.78-1.05-1.11-1.18-.33a9.21,9.21,0,0,0,1.22,6.44,20.61,20.61,0,0,1-6.57-4.36.62.62,0,0,0-1,.6c.22,1.06.45,2.12.68,3.17a16.94,16.94,0,0,1-6.29-7.63c-.3-.73-1.49-.41-1.19.32a18.37,18.37,0,0,0,8.07,9.12.62.62,0,0,0,.9-.7c-.19-.91-.39-1.82-.58-2.73a22,22,0,0,0,7.71,4.13A.62.62,0,0,0,134.33,163Z"/><path class="cls-20" d="M136,167.59a37.57,37.57,0,0,0-4,14.4c-.06.79,1.17.79,1.23,0A36.11,36.11,0,0,1,137,168.21C137.41,167.5,136.34,166.88,136,167.59Z"/><path class="cls-1" d="M188.46,195.12c-.61,4.59-1.45,9.14-2.47,13.64-2.56,11.38-6.25,22.53-9.91,33.63l-7,21a7,7,0,0,1-1.94,3.49c-1.38,1.1-3.33,1-5.09.9l-8.72-.64c-1.66-.12-3.53-.33-4.57-1.62s-.85-3.3-.56-5c.52-3,1.23-7.32,2-12.1.46-2.81,1-5.77,1.45-8.74a90.76,90.76,0,0,0-2.09-40c-2.71-9.39-3.66-21.73,4.48-31.91a20.21,20.21,0,0,1,19.29-7c6.73,1.42,11.88,7.31,14.08,13.83S189.34,188.29,188.46,195.12Z"/><g class="cls-21"><path class="cls-1" d="M189.8,195.9c-2.57,11.38-10.06,35.39-13.72,46.49l-7,21a7,7,0,0,1-1.94,3.49c-1.38,1.1-3.33,1-5.09.9l-8.72-.64c-1.66-.12-3.53-.33-4.57-1.62s-2.18-5.59-.56-5C154.41,262.77,178.05,236.3,189.8,195.9Z"/></g><path class="cls-17" d="M174.4,187a1.35,1.35,0,0,0-1.65.93,34.11,34.11,0,0,1-7.42,14.71,20.93,20.93,0,0,0-1.08-4.76,1.38,1.38,0,0,0-1.29-1,1.34,1.34,0,0,0-1.29,1,12.47,12.47,0,0,1-3.35,6.33q-.39-3.78-.77-7.56a1.35,1.35,0,0,0-2.64-.36c-.45,1.16-.89,2.32-1.34,3.47a20.58,20.58,0,0,1-.73-8.3,1.36,1.36,0,0,0-1.34-1.35,1.38,1.38,0,0,0-1.35,1.35,22.78,22.78,0,0,0,2.28,12.65,1.32,1.32,0,0,0,1.33.64,1.37,1.37,0,0,0,1.12-1l.56-1.46c.16,1.5.31,3,.47,4.5a1.35,1.35,0,0,0,2,1.16,15.32,15.32,0,0,0,4.72-5.12,18,18,0,0,1,.13,3,1.35,1.35,0,0,0,2.29.95,36.8,36.8,0,0,0,10.27-18.2A1.36,1.36,0,0,0,174.4,187Z"/><path class="cls-1" d="M185.12,129.48a29.3,29.3,0,0,0-20.59-1.69c-4.6,1.37-9.1,3.94-13.87,3.38-3-.34-5.92-2-9-1.72-4.18.29-7.57,4-11.75,4.11-2.53.09-4.88-1.11-7.26-1.94a27.41,27.41,0,0,0-24.5,3.56,76.56,76.56,0,0,1,15-21c13.7-13.48,34.92-16.48,51.1-6.12a37,37,0,0,1,9.8,9,54.82,54.82,0,0,0,6.93,7.67A23.51,23.51,0,0,1,185.12,129.48Z"/><g class="cls-10"><path class="cls-1" d="M130,117.58c-.9-1.56-3.33-1.47-4.82-1a6.48,6.48,0,0,0-3.87,3.29c-.34.71.73,1.33,1.07.62a5.21,5.21,0,0,1,4.9-3,1.94,1.94,0,0,1,1.66.67A.61.61,0,0,0,130,117.58Z"/><path class="cls-1" d="M148.15,115.54c.4-1.76,2.74-2.39,4.31-2.38a6.46,6.46,0,0,1,4.67,2c.54.58-.29,1.49-.83.91a5.26,5.26,0,0,0-3.58-1.66,5.32,5.32,0,0,0-2,.29c-.54.2-1.25.52-1.39,1.14A.62.62,0,0,1,148.15,115.54Z"/></g><path class="cls-1" d="M228.6,256.26a18.64,18.64,0,0,1-3.43,6.38A32.29,32.29,0,0,1,221,267c-.33.29-.66.58-1,.86a83.31,83.31,0,0,1-9.25,6.78c-1.76,1.12-3.55,2.18-5.37,3.16a88.79,88.79,0,0,1-15.39,6.51q-2.75.89-5.56,1.57a96.14,96.14,0,0,1-22.51,2.85c-2,0-3.9,0-5.86-.1a102,102,0,0,1-18.5-2.59c-1.78-.4-3.57-.86-5.35-1.38A104.12,104.12,0,0,1,119,279.93c-.67-.3-1.34-.59-2-.94a24.84,24.84,0,0,1-4.24-2.55,12.5,12.5,0,0,1-3.71-4.34,12.35,12.35,0,0,1,.06-10.2C112.64,254,122,249.45,130.39,251c.39.07.79.17,1.18.27a29.23,29.23,0,0,1,3.86,1.32c3.5,1.47,6.78,3.46,10.15,5.26a46.16,46.16,0,0,0,4.6,2.2,28.58,28.58,0,0,0,4.19,1.39,27.06,27.06,0,0,0,9,.63,35.06,35.06,0,0,0,4.85-.81,57.7,57.7,0,0,0,12.72-5.09c1.45-.78,2.9-1.58,4.31-2.4,1.7-1,3.38-2,5-2.93s3.46-2.05,5.22-3.05c1.47-.85,3-1.67,4.48-2.47a69.26,69.26,0,0,1,8.11-3.64,44.25,44.25,0,0,1,5-1.52,36,36,0,0,1,4.39-.79l.93-.08c2.37-.2,7.88-.52,8.14.37C226.5,239.69,229.84,252,228.6,256.26Z"/><g class="cls-10"><path class="cls-1" d="M131.57,251.3c-.39-.1-.79-.2-1.18-.27a8,8,0,0,1-.59.57h0c-.11.09-.23.17-.35.25l-.63.4c-.53.31-1.09.59-1.64.87a47.1,47.1,0,0,0-6.2,3,12.5,12.5,0,0,0-5,6.45,38,38,0,0,0-1.37,7.74c0,.07-.06.44-.07.53,0,.31-.1.63-.16.94-.11.58-.24,1.17-.4,1.73s-.32,1.05-.5,1.56c0,.08-.24.55-.24.55-.11.26-.22.51-.34.75l0,.08a24.84,24.84,0,0,0,4.24,2.55,21.12,21.12,0,0,0,1.91-5.34c.31-1.45.48-2.94.67-4.42l.11-1a1.92,1.92,0,0,1,.05-.32,1.25,1.25,0,0,1,0-.21c.1-.7.22-1.39.37-2.08a15.55,15.55,0,0,1,.51-1.77l.15-.41a.11.11,0,0,1,0-.06,8.55,8.55,0,0,1,.48-.9,5.66,5.66,0,0,1,.31-.48,1.17,1.17,0,0,1,.08-.13c.17-.19.35-.4.54-.59s.42-.38.63-.58l.07-.05.1-.07.27-.19c2-1.35,4.39-2.1,6.58-3.19a13,13,0,0,0,5.5-4.61A29.23,29.23,0,0,0,131.57,251.3Z"/><path class="cls-1" d="M123,260.68l.1-.07-.1.07Z"/><path class="cls-1" d="M150.18,260.08c-.11.54-.24,1.08-.36,1.63a57.71,57.71,0,0,1-12.32,24.34c-1.78-.4-3.57-.86-5.35-1.38.79-.84,1.56-1.7,2.3-2.59.33-.4.66-.82,1-1.24,0,0,0,0,0,0l0,0,.21-.3c.14-.2.29-.4.44-.59.62-.85,1.22-1.73,1.79-2.62a52.19,52.19,0,0,0,3.3-5.89,47.15,47.15,0,0,0,2.44-6.09,57.08,57.08,0,0,0,1.77-6.71l.12-.69A46.16,46.16,0,0,0,150.18,260.08Z"/><path class="cls-1" d="M163.5,285.84c-.5,1-1,2-1.64,2.9-2,0-3.9,0-5.86-.1.37-.52.74-1,1.09-1.58a41.29,41.29,0,0,0,2.79-5c.18-.39.37-.79.54-1.19.05-.1.16-.39.17-.4.09-.22.18-.44.26-.66.31-.82.61-1.66.87-2.48a45.48,45.48,0,0,0,1.39-6.09,2.24,2.24,0,0,1,0-.25c0-.13,0-.27,0-.41s.06-.51.08-.78c.05-.52.09-1.05.12-1.58,0-1,.08-1.94.08-2.91s-.06-2.12-.15-3.17v0a35.06,35.06,0,0,0,4.85-.81A43.89,43.89,0,0,1,163.5,285.84Z"/><path class="cls-1" d="M191.08,277a40.17,40.17,0,0,1-1.15,7.31q-2.75.89-5.56,1.57a36.33,36.33,0,0,0,1.26-4.82q.17-.81.27-1.62c0-.13.06-.44.06-.45q.06-.36.09-.75c.09-.91.15-1.82.16-2.75s0-2.17-.06-3.25c0-.51-.07-1-.12-1.51,0-.19-.05-.39-.08-.59a.35.35,0,0,0,0-.07.34.34,0,0,0,0-.1,38.47,38.47,0,0,0-1.28-5.6c-.3-1-.66-2-1-2.93l-.18-.43c-.08-.18-.15-.35-.24-.52-.16-.36-.33-.73-.5-1.09-.55-1.09-1.14-2.18-1.79-3.21,1.45-.78,2.9-1.58,4.31-2.4A39.84,39.84,0,0,1,191.08,277Z"/><path class="cls-1" d="M210.69,274.65c-1.76,1.12-3.55,2.18-5.37,3.16.06-.25.11-.5.15-.74s.08-.56.12-.83,0-.25,0-.37c.06-.49.11-1,.15-1.49a37.3,37.3,0,0,0-.1-6.34c0-.16,0-.33-.06-.49a1.09,1.09,0,0,1,0-.17c0-.06,0-.15,0-.16s0-.25-.06-.37c-.08-.5-.18-1-.27-1.47a29.54,29.54,0,0,0-.76-3c-.28-.93-.59-1.84-1-2.73a3.07,3.07,0,0,0-.17-.42,5.92,5.92,0,0,0-.26-.59c-.18-.42-.38-.84-.59-1.24a35.58,35.58,0,0,0-3-5l-.48-.66,0,0c-.05-.08-.11-.14-.16-.21-.3-.36-.58-.72-.89-1.06-.65-.77-1.33-1.49-2-2.2-.15-.13-.29-.28-.43-.42,1.47-.85,3-1.67,4.48-2.47.22.21.43.43.63.65a37.62,37.62,0,0,1,10.13,28.65Z"/><path class="cls-1" d="M225.17,262.5v.14A32.29,32.29,0,0,1,221,267c-.33.29-.66.58-1,.86,0-.41.09-.83.12-1.25a42.06,42.06,0,0,0,.13-5.72,37.84,37.84,0,0,0-1.88-10.14c-.27-.83-.56-1.65-.88-2.47l-.24-.58c0-.08-.05-.12-.06-.17a.84.84,0,0,1-.07-.16l-.52-1.15a43.76,43.76,0,0,0-2.54-4.59c-.31-.5-.63-1-1-1.45a36,36,0,0,1,4.39-.79l.93-.08c.24.36.46.74.68,1.11A44.86,44.86,0,0,1,225.17,262.5Z"/></g><path class="cls-16" d="M155.87,132.8c-.93,2.35-3.65,3.06-5.93,3.1-2.11,0-5.76.13-6.7-2.27a.62.62,0,0,0-1.21.16c-.22,2.93-3.82,4.44-6.27,5.05-2.64.66-5.6.22-7.37-2-.5-.62-1.36.26-.88.88,2.11,2.64,5.75,3.1,8.85,2.25,2.54-.7,5.53-2.15,6.55-4.69,1.66,1.78,4.7,1.9,7,1.86,2.91,0,6-1.1,7.11-4C157.34,132.39,156.15,132.07,155.87,132.8Z"/><path class="cls-20" d="M148.18,139.93a5.87,5.87,0,0,1-3.88,2.82,5.79,5.79,0,0,1-4.87-1.32c-.59-.52-1.47.35-.87.87a6.93,6.93,0,0,0,10.69-1.75A.62.62,0,0,0,148.18,139.93Z"/><path class="cls-16" d="M147.58,127.54a2.44,2.44,0,0,0-1.77-.59,19.31,19.31,0,0,0-5.47.42c-1.38.36-4.05,1.18-3.45,3.1a3.78,3.78,0,0,0,.77,1.25,14.45,14.45,0,0,0,3.37,2.91,3.29,3.29,0,0,0,1.69.62,3.16,3.16,0,0,0,1.93-.9,9.59,9.59,0,0,0,3.13-5.3,2,2,0,0,0-.09-1.35A.91.91,0,0,0,147.58,127.54Z"/><path class="cls-16" d="M157.1,123.21a5.09,5.09,0,0,1,0,.55,3.68,3.68,0,0,1-7.3-.94C150.29,118.24,157.14,119,157.1,123.21Z"/><path class="cls-16" d="M131.05,125.6a3.48,3.48,0,0,1,0,.55,3.68,3.68,0,0,1-7.3-.94C124.24,120.63,131.09,121.38,131.05,125.6Z"/><path class="cls-16" d="M183.78,117.16a46.34,46.34,0,0,0-20.17,10.37c-.59.53.28,1.4.88.88a45.05,45.05,0,0,1,19.62-10.07C184.88,118.17,184.55,117,183.78,117.16Z"/><path class="cls-16" d="M189,124.3a72.38,72.38,0,0,0-25.5,4.76c-.73.28-.42,1.47.33,1.18A72,72,0,0,1,189,125.53.62.62,0,0,0,189,124.3Z"/><path class="cls-16" d="M186.43,135.84A88,88,0,0,0,165,130.92c-.78-.08-.78,1.16,0,1.24A86.3,86.3,0,0,1,186.1,137C186.85,137.31,187.17,136.12,186.43,135.84Z"/><path class="cls-16" d="M97.92,125.07a46.34,46.34,0,0,1,22,5.31c.7.37.06,1.42-.64,1.05a45.09,45.09,0,0,0-21.44-5.13C97.09,126.31,97.13,125.08,97.92,125.07Z"/><path class="cls-16" d="M94.5,133.25a72.82,72.82,0,0,1,25.9-1.41c.78.1.75,1.33,0,1.23a71.91,71.91,0,0,0-25.57,1.38A.62.62,0,0,1,94.5,133.25Z"/><path class="cls-16" d="M99.77,143.85A87.65,87.65,0,0,1,119.41,134c.75-.27,1,.93.29,1.19a86.53,86.53,0,0,0-19.33,9.73C99.71,145.37,99.11,144.29,99.77,143.85Z"/><path class="cls-22" d="M373.83,271.71l.73-.21a3.64,3.64,0,0,1,4.4,4.85l0,.06a6.49,6.49,0,0,0-1,3,4.58,4.58,0,0,0,1.49,2.58,2.93,2.93,0,0,1-2.47.75,5.5,5.5,0,0,1-2.42-1.07,8.16,8.16,0,0,1-3.23-4.37,6,6,0,0,1,0-3.21A3.58,3.58,0,0,1,373.83,271.71Z"/><path class="cls-16" d="M385.31,280.39a21.32,21.32,0,0,1,4.45.18,7.73,7.73,0,0,1,4,1.86l-14.23.85-2.44-1.52A24.2,24.2,0,0,1,385.31,280.39Z"/><path class="cls-16" d="M364.1,282.46a3.51,3.51,0,0,1,1.21-.47,30.7,30.7,0,0,1,12.08-.21l.45-.08a13.35,13.35,0,0,1,11.92,3c-4.66.56-9.34-.58-14-.85-4.09-.23-8.21.19-12.26-.34A1.35,1.35,0,0,1,364.1,282.46Z"/><path class="cls-22" d="M286.08,275.87a10.88,10.88,0,0,0,5.63,5.32,21,21,0,0,0,5.44,1.86c11.11,2.54,22.46,2.76,33.84,2,7.23-.48,14.48-1.36,21.67-2.32s14.54-.57,21.25-3.28,12.94-7,17-13,4.91-13.31,5.36-20.74q.28-4.66.78-9.32c.51-4.87,1.23-9.73,2.19-14.54l.27-1.34c1.17-5.87,3-11.85,2.5-17.8s-3-12.19-8-15.48c-18.15-11.92-32.92.73-35.07,3.37s-3.19,6.37-3.63,9.91a37.44,37.44,0,0,1-1,6.33,8.09,8.09,0,0,1-3.74,5,3.9,3.9,0,0,0,5.09-1,6.38,6.38,0,0,1-1.83,4.45,5.52,5.52,0,0,0,3.49-.59c-.12,2.36-.26,4.71-.59,7.05-1.47,10.9-6.47,20.94-11.41,30.77l-8.19,16.31c-1.58,3.14-3.31,6.46-6.37,8.2-4.67,2.69-10.67.71-15.18-2.24-.28-.18-.55-.36-.83-.56a24.36,24.36,0,0,1-3.77-3.48c-1.74-2-3.21-4.31-5.37-5.86a5.29,5.29,0,0,0-3.62-1.17,2.84,2.84,0,0,0-2.45,2.16c-.24,0-.49-.06-.75-.08a11,11,0,0,0-4.64-1.83,5.55,5.55,0,0,0-5.19,2.11,3.94,3.94,0,0,0-.15,4l0,.05a2.19,2.19,0,0,0-.17.29,2.47,2.47,0,0,0-1.37.17A3.11,3.11,0,0,0,285.6,273,5.41,5.41,0,0,0,286.08,275.87Z"/><path class="cls-14" d="M331,285.05c7.23-.48,14.48-1.36,21.67-2.32s14.54-.57,21.25-3.28,12.94-7,17-13,4.91-13.31,5.36-20.74q.28-4.66.78-9.32a10.5,10.5,0,0,0-3.27-2,11.41,11.41,0,0,0-12.66,3.53c-2.62,3.33-3.1,7.8-3.67,12-1.13,8.1-3.37,16.75-9.76,21.86-5.66,4.51-13.31,5.28-20.45,6.5C341.37,279.28,335.12,281,331,285.05Z"/><path class="cls-14" d="M362,201.5a18.3,18.3,0,0,0,.12,1.91c.7,6.55,5.84,11.7,10.84,10.85s7.87-7.87,7.29-14.44C378.79,184,361.85,186.87,362,201.5Z"/><path class="cls-1" d="M384.75,219.87a13.94,13.94,0,0,0,5,6.56,9.52,9.52,0,0,0,5.64,1.93,8,8,0,0,0,6-3.15,11.72,11.72,0,0,0,2.16-4.6,5.2,5.2,0,0,0-3.62-.23c-1.38.34-2.7,1-4.08,1.36a8.22,8.22,0,0,1-6.74-1.1,13.17,13.17,0,0,1-4.8-7.82l-.07-.31A13.51,13.51,0,0,0,384.75,219.87Z"/><path class="cls-16" d="M384.19,212.51l.07.31a13.17,13.17,0,0,0,4.8,7.82,8.22,8.22,0,0,0,6.74,1.1c1.38-.36,2.7-1,4.08-1.36a5.2,5.2,0,0,1,3.62.23,3.35,3.35,0,0,1,.57.33,4.58,4.58,0,0,1,1.71,4.57,24,24,0,0,0,6.79-18.28c0-.73-.12-1.44-.22-2.16-1.42-9.52-8.9-16.74-16.48-15.64a12.17,12.17,0,0,0-6.6,2.93c-2.73,2.47-4.36,6.49-5.1,10.68A24.54,24.54,0,0,0,384.19,212.51Z"/><path class="cls-16" d="M378.77,210.24a5.27,5.27,0,0,1,2.69-4.5l.16-.13a1.43,1.43,0,0,1,.61-.26h.12a.64.64,0,0,1,.62.44.78.78,0,0,1,0,.67.76.76,0,0,1-.52.52l-.13.07a14.33,14.33,0,0,0,.58,1.33c.33.75.67,1.5,1,2.23.47,1,1,1.88,1.52,2.79a45.72,45.72,0,0,0,3.51,4.35c.37.41-.22,1-.59.63-.9-1-1.75-2-2.57-3.08a.36.36,0,0,1-.33-.19c-.25-.4-.48-.82-.72-1.22-.66-.93-1.3-1.87-1.9-2.84-.4-.66-.78-1.32-1.15-2-.16-.31-.44-.7-.61-1.09a11.5,11.5,0,0,0-1.49,2.48C379.41,210.83,378.77,210.65,378.77,210.24Z"/><path class="cls-14" d="M333.64,263.46a3.35,3.35,0,0,0,1.92,1.17c1.61.36,3.31-.37,4.79-1,.38-.16.6.38.37.64-.86,1,.15,2.34,1.13,2.69a8.58,8.58,0,0,0,4.27,0c2.62-.49,5.37-1.89,6.12-4.66a.39.39,0,0,1,.75.2,5.35,5.35,0,0,0,2.95,5.52,7,7,0,0,0,4,.68,23.09,23.09,0,0,0,5.91-5,18.55,18.55,0,0,0,4.14-9.42,5.71,5.71,0,0,1-1.63,1,4.85,4.85,0,0,1-4.11-.1,4.57,4.57,0,0,1-2.15-2.31,9.9,9.9,0,0,1-4.81,4.15c-1.87.75-4.48.94-5.94-.6-.6,2.81-3.73,4.57-6.21,5.47-2.71,1-6.28.81-8-1.79a4.87,4.87,0,0,1-.58-1.22C335.54,260.41,334.59,261.93,333.64,263.46Z"/><path class="cls-9" d="M336.51,258.89a4.87,4.87,0,0,0,.58,1.22c1.75,2.6,5.32,2.78,8,1.79,2.48-.9,5.61-2.66,6.21-5.47,1.46,1.54,4.07,1.35,5.94.6a9.9,9.9,0,0,0,4.81-4.15,4.57,4.57,0,0,0,2.15,2.31,4.85,4.85,0,0,0,4.11.1,5.71,5.71,0,0,0,1.63-1c0-.43.09-.86.1-1.29s0-.8,0-1.19a14.31,14.31,0,0,0-8.94-12.51,11.89,11.89,0,0,0-7.67-.52c-5.41,1.55-8.1,6.75-11,11.08-.58.87-1.16,1.72-1.73,2.6-.16.23-.32.46-.47.7-1,1.48-1.94,3-2.91,4.48-.07.13-.16.25-.23.38h0C336.9,258.29,336.7,258.58,336.51,258.89Z"/><path class="cls-9" d="M327.23,274.71a1.21,1.21,0,0,0,1.22.68h.14a2.32,2.32,0,0,0-.65.46,1.44,1.44,0,0,0-.13,2,2,2,0,0,0,1.73.25,14.79,14.79,0,0,0,4.32-1.55c-.5.25-.36,1.09.12,1.39a2.41,2.41,0,0,0,1.66.09c6.5-1.35,12.54-4.45,18.15-8-.39.23-.21.9.21,1.08a1.8,1.8,0,0,0,1.32-.12,27.09,27.09,0,0,0,3.17-1.41c.49-.24,1-.51,1.43-.79a7,7,0,0,1-4-.68,5.35,5.35,0,0,1-2.95-5.52.39.39,0,0,0-.75-.2c-.75,2.77-3.5,4.17-6.12,4.66a8.58,8.58,0,0,1-4.27,0c-1-.35-2-1.72-1.13-2.69.23-.26,0-.8-.37-.64-1.48.59-3.18,1.32-4.79,1a3.35,3.35,0,0,1-1.92-1.17c-.15.23-.29.46-.43.69q-2.82,4.55-5.59,9.11A1.76,1.76,0,0,0,327.23,274.71Z"/><path class="cls-16" d="M369.53,199.74a2.69,2.69,0,0,0,0,.4,2.69,2.69,0,0,0,5.33-.68C374.5,196.11,369.5,196.66,369.53,199.74Z"/><path class="cls-22" d="M346.57,275.58l.73-.21a3.64,3.64,0,0,1,4.4,4.85l0,.06a6.44,6.44,0,0,0-1,3,4.63,4.63,0,0,0,1.48,2.58,2.89,2.89,0,0,1-2.46.74,5.64,5.64,0,0,1-2.43-1.06,8.19,8.19,0,0,1-3.22-4.37,6,6,0,0,1,0-3.21A3.54,3.54,0,0,1,346.57,275.58Z"/><path class="cls-16" d="M358.05,284.26a20.71,20.71,0,0,1,4.45.18,7.72,7.72,0,0,1,4,1.85l-14.24.85-2.43-1.52A24.36,24.36,0,0,1,358.05,284.26Z"/><path class="cls-16" d="M336.84,286.33a3.51,3.51,0,0,1,1.21-.47,30.7,30.7,0,0,1,12.08-.21l.45-.08a13.35,13.35,0,0,1,11.91,3c-4.65.57-9.33-.57-14-.84-4.09-.24-8.21.19-12.27-.35A1.37,1.37,0,0,1,336.84,286.33Z"/><path class="cls-11" d="M103.13,204.79a12.14,12.14,0,0,1-4.3,3.84,11.23,11.23,0,0,1-4.37,1.58,5.63,5.63,0,0,1-2.69-.34L90.54,206a42.08,42.08,0,0,0,6.4-8.93c.51-.95,1.14-2,2.2-2.15a3.26,3.26,0,0,1,2.44,1.34,12.6,12.6,0,0,1,1.88,2.27,4.55,4.55,0,0,1,.37.73A6.26,6.26,0,0,1,103.13,204.79Z"/><path class="cls-5" d="M103.13,204.79a12.14,12.14,0,0,1-4.3,3.84,11.23,11.23,0,0,1-4.37,1.58l-.21-.67a41.89,41.89,0,0,0,6.4-8.94c.5-.94,1.14-2,2.2-2.14a1.55,1.55,0,0,1,.61,0,4.55,4.55,0,0,1,.37.73A6.26,6.26,0,0,1,103.13,204.79Z"/><path class="cls-11" d="M77.13,216A4,4,0,0,1,75,219.14a4.8,4.8,0,0,1-.6.3,8.6,8.6,0,0,1-4.56.27A14.35,14.35,0,0,1,64,217.46a10.63,10.63,0,0,1-2.86-2.89,8.65,8.65,0,0,1-1-1.94,2.4,2.4,0,0,1,0-2.06,2.56,2.56,0,0,1,1.93-.93c4.57-.57,9.08,1.2,13.35,2.94Z"/><path class="cls-5" d="M75,219.14a4.8,4.8,0,0,1-.6.3,8.6,8.6,0,0,1-4.56.27A14.35,14.35,0,0,1,64,217.46a10.63,10.63,0,0,1-2.86-2.89c4.47-.46,8.87,1.27,13,3Z"/><path class="cls-11" d="M84.83,284.18A2.88,2.88,0,0,0,82.64,283a12.53,12.53,0,0,0-6.39.66l-.08-.06a12.26,12.26,0,0,0-6.8,1.84,3.45,3.45,0,0,0-1,.88,1.41,1.41,0,0,0-.22,1.28c.26.67,1.09.89,1.8,1,3.78.49,7.61-.17,11.37-.84a5.55,5.55,0,0,0,3-1.18A2.06,2.06,0,0,0,84.83,284.18Z"/><path class="cls-11" d="M114.78,284.18A2.88,2.88,0,0,1,117,283a12.53,12.53,0,0,1,6.39.66l.08-.06a12.26,12.26,0,0,1,6.8,1.84,3.45,3.45,0,0,1,1,.88,1.41,1.41,0,0,1,.22,1.28c-.26.67-1.08.89-1.79,1-3.79.49-7.62-.17-11.38-.84a5.55,5.55,0,0,1-3-1.18A2.08,2.08,0,0,1,114.78,284.18Z"/><path class="cls-11" d="M131.44,272.43c-.55,5.61-3.54,11.36-8.75,13.52-5.64,2.34-12,0-18-1a40,40,0,0,0-17,.91c-3.31.91-6.61,2.27-10,2-4.56-.31-8.6-3.59-10.62-7.7a21.45,21.45,0,0,1-1.44-13.42c2.89-15,7.92-18.53,7.92-18.53s-4.23-1.64-4.94-2.59c-1.83-2.45-2.1-5.67-2.2-8.76,0-.21,0-.44,0-.65-.13-4.62-.25-9.33,1-13.77A24.68,24.68,0,0,1,80.7,207.39a25.25,25.25,0,0,1,13.64-2.46c7.36.95,12.63,5.85,17.94,10.6,0,0,0,0,.07.06,2.38,2.12,4.81,4.34,6.05,7.28a9.3,9.3,0,0,1,.54,3.13,47,47,0,0,0,4.42,18c1.24,2.7,2.51,5.53,3.5,7.82C129.66,258.35,132.13,265.34,131.44,272.43Z"/><path class="cls-14" d="M131.44,272.43c-.55,5.61-3.54,11.36-8.75,13.52-5.64,2.34-12,0-18-1a40,40,0,0,0-17,.91c-3.31.91-6.61,2.27-10,2-4.56-.31-8.6-3.59-10.62-7.7a21.45,21.45,0,0,1-1.44-13.42c2.89-15,7.92-18.53,7.92-18.53s-4.23-1.64-4.94-2.59c-1.83-2.45-2.1-5.67-2.2-8.76a25.57,25.57,0,0,1,16.25-5.45,5.22,5.22,0,0,0,3.92-1.73,11.29,11.29,0,0,1,9.7-3.39,5,5,0,0,0,4.93-2.35,19.56,19.56,0,0,1,11.22-8.38c2.38,2.12,4.81,4.34,6.05,7.28a9.3,9.3,0,0,1,.54,3.13,47,47,0,0,0,4.42,18c1.24,2.7,2.51,5.53,3.5,7.82C129.66,258.35,132.13,265.34,131.44,272.43Z"/><path class="cls-16" d="M100.41,220.9a3.67,3.67,0,0,1,0,.46,3,3,0,0,1-6-.78C94.79,216.8,100.44,217.42,100.41,220.9Z"/><path class="cls-16" d="M84,227.13c0,.15,0,.3,0,.46a3,3,0,0,1-6-.78C78.41,223,84.06,223.65,84,227.13Z"/><path class="cls-16" d="M98.17,228.85a.61.61,0,0,0-.6.6,3,3,0,0,1-1.82,2.34,3.07,3.07,0,0,1-3-.41.61.61,0,0,0-1,.43,2.67,2.67,0,0,1-4,2,.6.6,0,0,0-.6,1A3.93,3.93,0,0,0,91,235a3.89,3.89,0,0,0,1.76-2.2,4.19,4.19,0,0,0,3.5.12,4.3,4.3,0,0,0,2.51-3.42A.61.61,0,0,0,98.17,228.85Z"/><path class="cls-5" d="M93.14,227.08h0l0,0a1.54,1.54,0,0,0-1.34-1.17,3.89,3.89,0,0,0-1.39.22,7.63,7.63,0,0,0-1.35.58,2.08,2.08,0,0,0-.91.8,1.38,1.38,0,0,0,0,1.19,2.25,2.25,0,0,0,.83,1,7,7,0,0,0,1.15.69,2,2,0,0,0,1.34.21,1.81,1.81,0,0,0,.88-.61,4.27,4.27,0,0,0,.56-1,3.47,3.47,0,0,0,.37-1.3A1.31,1.31,0,0,0,93.14,227.08Z"/><path class="cls-16" d="M108.66,226.45A60.73,60.73,0,0,0,100,227a52.55,52.55,0,0,1,7.67-4.41c.35-.17.06-.69-.29-.53a53.35,53.35,0,0,0-7.85,4.54,20.16,20.16,0,0,1,7.08-8.38c.32-.21,0-.74-.28-.53a20.91,20.91,0,0,0-7.59,9.2.24.24,0,0,0,0,.27.35.35,0,0,0,.13.44.31.31,0,0,0,.28.1,60.69,60.69,0,0,1,9.43-.67A.3.3,0,0,0,108.66,226.45Z"/><path class="cls-16" d="M79,239.67a71,71,0,0,1,5.79-7.16,57.72,57.72,0,0,0-8.32,4.08c-.35.21-.6-.34-.25-.55a57,57,0,0,1,8.53-4.17,20.4,20.4,0,0,0-11.18,1.26.3.3,0,0,1-.25-.55,21.05,21.05,0,0,1,12.16-1.22.21.21,0,0,1,.19.19.43.43,0,0,1,.19.67A68,68,0,0,0,79.47,240,.3.3,0,1,1,79,239.67Z"/><g class="cls-23"><path class="cls-24" d="M79.15,219.94a4.85,4.85,0,0,0-3.2,5.19.63.63,0,0,0,.63.57.62.62,0,0,0,.57-.63,3.57,3.57,0,0,1,.45-2.42,3.62,3.62,0,0,1,1.93-1.58.61.61,0,0,0,.38-.75A.6.6,0,0,0,79.15,219.94Z"/><path class="cls-24" d="M98.91,214.07a4.85,4.85,0,0,0-6.06.7.61.61,0,0,0,0,.84.6.6,0,0,0,.84.06,3.59,3.59,0,0,1,4.62-.6.6.6,0,0,0,.82-.17A.6.6,0,0,0,98.91,214.07Z"/></g><path class="cls-14" d="M103.47,250.08a7,7,0,0,1,2.81-3.27,4.49,4.49,0,0,1,5.3,7.11s-3.94,3.84-6.59,5.2a2.3,2.3,0,0,1-2.29.24,2.22,2.22,0,0,1-.72-1.78A15,15,0,0,1,103.47,250.08Z"/><path class="cls-16" d="M103.89,250.89a12.78,12.78,0,0,0-2.29,5.92c0,.38.56.37.6,0a12.18,12.18,0,0,1,2.21-5.62C104.64,250.87,104.12,250.58,103.89,250.89Z"/><path class="cls-16" d="M113.42,250.62a13,13,0,0,1-8.67,7.83.3.3,0,0,0,.16.57,13.57,13.57,0,0,0,9.09-8.24C114.14,250.42,113.56,250.26,113.42,250.62Z"/><path class="cls-5" d="M100.73,257.43a2.83,2.83,0,0,1,2.6-1,2.94,2.94,0,0,1,1.84,2.22,7.16,7.16,0,0,1,.09,3.38l0,.26a3.18,3.18,0,0,1-.05,1.34,1.15,1.15,0,0,1-1,.84.75.75,0,0,1-.74-.62.76.76,0,0,1-.9.41,1,1,0,0,1-.58-.88.71.71,0,0,1-1.41-.2.64.64,0,0,1-.84.23,1.4,1.4,0,0,1-.56-1A5.81,5.81,0,0,1,100.73,257.43Z"/><path class="cls-25" d="M103.3,260.49a.3.3,0,0,1,.58.15,7,7,0,0,0,0,3.29c.1.37-.48.54-.57.16A7.56,7.56,0,0,1,103.3,260.49Z"/><path class="cls-25" d="M101.73,261.5a.3.3,0,1,1,.59,0,7.35,7.35,0,0,0,.12,2,.3.3,0,1,1-.58.16A7.37,7.37,0,0,1,101.73,261.5Z"/><path class="cls-25" d="M100.93,260.43a.32.32,0,0,1,.37-.21.31.31,0,0,1,.21.37,5,5,0,0,0-.32,2.56.3.3,0,0,1-.57.16A5.55,5.55,0,0,1,100.93,260.43Z"/><path class="cls-14" d="M91.45,250.08a7,7,0,0,0-2.81-3.27,4.49,4.49,0,0,0-5.3,7.11s3.94,3.84,6.59,5.2a2.3,2.3,0,0,0,2.29.24,2.22,2.22,0,0,0,.72-1.78A15,15,0,0,0,91.45,250.08Z"/><path class="cls-16" d="M91,250.89a12.78,12.78,0,0,1,2.29,5.92c0,.38-.56.37-.6,0a12.18,12.18,0,0,0-2.21-5.62C90.28,250.87,90.8,250.58,91,250.89Z"/><path class="cls-16" d="M81.5,250.62a13,13,0,0,0,8.67,7.83A.3.3,0,0,1,90,259a13.57,13.57,0,0,1-9.09-8.24C80.78,250.42,81.36,250.26,81.5,250.62Z"/><path class="cls-5" d="M94.19,257.43a2.83,2.83,0,0,0-2.6-1,2.94,2.94,0,0,0-1.84,2.22,7.16,7.16,0,0,0-.09,3.38l0,.26a3.18,3.18,0,0,0,.05,1.34,1.15,1.15,0,0,0,1,.84.75.75,0,0,0,.74-.62.76.76,0,0,0,.9.41,1,1,0,0,0,.58-.88.71.71,0,0,0,1.41-.2.64.64,0,0,0,.84.23,1.4,1.4,0,0,0,.56-1A5.81,5.81,0,0,0,94.19,257.43Z"/><path class="cls-25" d="M91.62,260.49a.3.3,0,0,0-.58.15,7,7,0,0,1,0,3.29c-.1.37.48.54.57.16A7.56,7.56,0,0,0,91.62,260.49Z"/><path class="cls-25" d="M93.19,261.5a.3.3,0,1,0-.59,0,7.35,7.35,0,0,1-.12,2,.3.3,0,0,0,.58.16A7.37,7.37,0,0,0,93.19,261.5Z"/><path class="cls-25" d="M94,260.43a.32.32,0,0,0-.37-.21.31.31,0,0,0-.21.37,5,5,0,0,1,.32,2.56.3.3,0,0,0,.57.16A5.55,5.55,0,0,0,94,260.43Z"/></g></g></g></svg>